<svg width="42" height="28" viewBox="0 0 42 28" fill="none" xmlns="http://www.w3.org/2000/svg">
<path d="M38.0183 28H4.61842C2.5214 28 0.818359 26.3479 0.818359 24.3135V3.68648C0.818359 1.65214 2.5214 0 4.61842 0H38.0183C40.1153 0 41.8184 1.65214 41.8184 3.68648V24.3135C41.8056 26.3479 40.1153 28 38.0183 28Z" fill="#006FCF"/>
<mask id="mask0" mask-type="alpha" maskUnits="userSpaceOnUse" x="0" y="6" width="42" height="17">
<path d="M0.818359 6.64258V22.905H41.7802V6.64258H0.818359Z" fill="white"/>
</mask>
<g mask="url(#mask0)">
<path d="M36.7591 13.584H39.8347V6.64258H36.5558V7.75222L35.8313 6.64258H32.9718V8.04813L32.3363 6.64258H27.5958C27.367 6.64258 27.1509 6.65491 26.9349 6.6919C26.7569 6.71655 26.579 6.75354 26.4011 6.81519C26.2613 6.85218 26.1342 6.90149 26.0071 6.96314C25.8546 7.02479 25.7148 7.11109 25.5877 7.1974V6.96314V6.65491H10.146L9.72657 7.86319L9.29446 6.65491H5.69774V8.07278L5.04957 6.65491H2.11374L0.804688 9.62629V12.9799V13.5963H2.87629L3.25757 12.5977H3.982L4.37598 13.5963H20.3388V12.5853L21.1395 13.5963H25.5496V13.3744V13.0908C25.664 13.1648 25.7783 13.2265 25.9054 13.2758C26.0198 13.3251 26.1469 13.3744 26.274 13.4114C26.4265 13.4607 26.579 13.4977 26.7442 13.5224C26.9984 13.5717 27.2526 13.584 27.4941 13.584H30.1376L30.5189 12.5853H31.2433L31.6373 13.584H36.0601V12.5483L36.7591 13.584ZM41.7793 22.4858V15.9759H41.4234H16.3735L15.7253 16.8636L15.0899 15.9759H7.76935V22.9173H15.0517L15.6872 22.0173L16.3481 22.9173H20.9107V21.4132H20.8599C21.4318 21.4132 21.9401 21.3145 22.3977 21.1542V22.9173H25.575V21.9063L26.3757 22.9173H40.1652C40.5592 22.9173 40.9277 22.8557 41.2709 22.7324C41.4488 22.6584 41.6268 22.5845 41.7793 22.4858Z" fill="#F7F7F7"/>
<mask id="mask1" mask-type="alpha" maskUnits="userSpaceOnUse" x="8" y="17" width="34" height="5">
<path d="M41.8056 21.7857V17.1006H8.90137V21.7857H41.8056Z" fill="white"/>
</mask>
<g mask="url(#mask1)">
<path d="M40.1788 20.8487H37.7005V21.7857H40.1407C41.1828 21.7857 41.8056 21.1693 41.8056 20.2939C41.8056 19.4555 41.2464 18.9746 40.3059 18.9746H39.2002C38.9206 18.9746 38.7299 18.802 38.7299 18.5308C38.7299 18.2472 38.9206 18.0623 39.2002 18.0623H41.2972L41.7293 17.1129H39.2383C38.1961 17.1129 37.5734 17.7294 37.5734 18.5678C37.5734 19.4308 38.158 19.924 39.0731 19.924H40.1788C40.4584 19.924 40.649 20.0966 40.649 20.3802C40.6617 20.6514 40.4584 20.8487 40.1788 20.8487ZM35.5907 20.8487H33.1124V21.7857H35.5526C36.5948 21.7857 37.2175 21.1693 37.2175 20.2939C37.2175 19.4555 36.6583 18.9746 35.7178 18.9746H34.5994C34.3198 18.9746 34.1292 18.802 34.1292 18.5308C34.1292 18.2472 34.3198 18.0623 34.5994 18.0623H36.6965L37.1286 17.1129H34.6376C33.5954 17.1129 32.9726 17.7294 32.9726 18.5678C32.9726 19.4308 33.5573 19.924 34.4723 19.924H35.578C35.8576 19.924 36.0483 20.0966 36.0483 20.3802C36.0737 20.6514 35.8703 20.8487 35.5907 20.8487ZM32.4134 18.0499V17.1006H28.5498V21.7857H32.4134V20.8364H29.7064V19.8994H32.3499V18.9623H29.7064V18.0499H32.4134ZM25.9444 18.0499C26.3638 18.0499 26.5799 18.3089 26.5799 18.6294C26.5799 18.95 26.3638 19.2089 25.9444 19.2089H24.5846V18.0499H25.9444ZM24.5846 20.0966H25.1311L26.5672 21.7857H28.016L26.4147 20.0596C27.2408 19.9117 27.7237 19.3322 27.7237 18.5924C27.7237 17.7171 27.0883 17.1129 26.0588 17.1129H23.4407V21.7981H24.5973V20.0966H24.5846ZM21.636 18.6664C21.636 18.987 21.4327 19.2459 21.026 19.2459H19.6407V18.0993H21.026C21.4327 18.0993 21.636 18.3459 21.636 18.6664ZM18.4841 17.1006V21.7857H19.6407V20.2446H21.0895C22.1444 20.2446 22.8053 19.5788 22.8053 18.6787C22.8053 17.754 22.1698 17.1129 21.1404 17.1129H18.4841V17.1006ZM16.7811 21.7857H18.2299L16.2981 19.4308L18.2172 17.1129H16.8065L15.6245 18.5924L14.4426 17.1129H12.9937L14.9255 19.4555L13.0064 21.7981H14.4172L15.5991 20.2939L16.7811 21.7857ZM12.765 18.0499V17.1006H8.90137V21.7857H12.765V20.8364H10.0579V19.8994H12.7014V18.9623H10.0579V18.0499H12.765Z" fill="#006FCF"/>
</g>
<path d="M35.1587 9.65104L35.146 9.26883L35.3874 9.65104L37.2303 12.4498H38.5775V7.76465H37.4463V10.4771L37.459 10.8223L37.243 10.4771L35.4383 7.76465H34.0148V12.4498H35.146V9.65104H35.1587ZM30.5452 9.51542L30.9011 8.64003L31.2569 9.51542L31.6891 10.5511H30.1385L30.5452 9.51542ZM32.4516 12.4498H33.748L31.6891 7.76465H30.1639L28.0923 12.4498H29.3251L29.7318 11.4511H32.0449L32.4516 12.4498ZM27.406 12.4498H27.4696L27.9398 11.4511H27.584C26.796 11.4511 26.3258 10.9703 26.3258 10.1442V10.0702C26.3258 9.33048 26.7452 8.77566 27.5713 8.77566H28.8295V7.76465H27.4823C25.9953 7.76465 25.1819 8.73867 25.1819 10.0702V10.1565C25.1819 11.5374 26.008 12.4375 27.406 12.4498ZM23.2882 12.4498H24.4448V10.3908V7.76465H23.2882V10.3538V12.4498ZM20.8481 8.72634C21.2675 8.72634 21.4835 8.98526 21.4835 9.30582C21.4835 9.62638 21.2675 9.8853 20.8481 9.8853H19.4882V8.72634H20.8481ZM19.5009 10.7607H20.0474L21.4835 12.4498H22.9197L21.3183 10.7237C22.1444 10.5757 22.6274 9.99626 22.6274 9.2565C22.6274 8.38112 21.9919 7.77698 20.9625 7.77698H18.3444V12.4621H19.5009V10.7607ZM17.4928 8.71401V7.76465H13.6292V12.4498H17.4928V11.4881H14.7858V10.5634H17.4293V9.62638H14.7858V8.71401H17.4928ZM7.88466 9.2565L7.85925 7.98658L9.19372 12.4498H10.2359L11.5703 8.01124L11.5449 9.24417V12.4498H12.6633V7.76465H10.6171L9.70209 11.0812L8.77431 7.76465H6.74083V12.4498H7.85925V9.2565H7.88466ZM3.27121 9.51542L3.62707 8.64003L3.98293 9.51542L4.41504 10.5511H2.86452L3.27121 9.51542ZM5.19031 12.4498H6.49936L4.44046 7.76465H2.91535L0.84375 12.4498H2.07655L2.48324 11.4511H4.78361L5.19031 12.4498Z" fill="#006FCF"/>
</g>
</svg>
