<svg width="41" height="28" viewBox="0 0 41 28" fill="none" xmlns="http://www.w3.org/2000/svg">
<path d="M36 0H5C2.23858 0 0 2.23858 0 5V23C0 25.7614 2.23858 28 5 28H36C38.7614 28 41 25.7614 41 23V5C41 2.23858 38.7614 0 36 0Z" fill="#919191"/>
<path d="M20.2035 6.92601C20.6738 6.56601 21.3274 6.56601 21.7977 6.92601L27.3799 11.1931C28.0909 11.7365 27.7095 12.8705 26.8163 12.875H15.1838C14.2917 12.8705 13.9092 11.7365 14.6213 11.1931L20.2035 6.92601V6.92601ZM21 10.9063C21.2238 10.9063 21.4384 10.8174 21.5967 10.6591C21.7549 10.5009 21.8438 10.2863 21.8438 10.0625C21.8438 9.83873 21.7549 9.62412 21.5967 9.46588C21.4384 9.30765 21.2238 9.21876 21 9.21876C20.7763 9.21876 20.5616 9.30765 20.4034 9.46588C20.2452 9.62412 20.1563 9.83873 20.1563 10.0625C20.1563 10.2863 20.2452 10.5009 20.4034 10.6591C20.5616 10.8174 20.7763 10.9063 21 10.9063Z" fill="white"/>
<path d="M15.9375 14V17.375H17.625V14H15.9375Z" fill="white"/>
<path d="M18.75 14V17.375H20.4375V14H18.75Z" fill="white"/>
<path d="M21.5625 14V17.375H23.25V14H21.5625Z" fill="white"/>
<path d="M24.375 14V17.375H26.0625V14H24.375Z" fill="white"/>
<path d="M14.25 19.9062C14.25 19.13 14.88 18.5 15.6562 18.5H26.3438C27.12 18.5 27.75 19.13 27.75 19.9062V20.1875C27.75 20.3367 27.6907 20.4798 27.5852 20.5852C27.4798 20.6907 27.3367 20.75 27.1875 20.75H14.8125C14.6633 20.75 14.5202 20.6907 14.4148 20.5852C14.3093 20.4798 14.25 20.3367 14.25 20.1875V19.9062Z" fill="white"/>
</svg>
