<svg width="41" height="28" viewBox="0 0 41 28" fill="none" xmlns="http://www.w3.org/2000/svg">
<rect width="41" height="28" rx="5" fill="#FFA200"/>
<path fill-rule="evenodd" clip-rule="evenodd" d="M33.7554 13.7978H33.4591V12.2216H33.7554C34.4074 12.2216 34.7038 12.5135 34.7038 12.9805C34.7038 13.5059 34.4074 13.7978 33.7554 13.7978ZM35.7699 12.9218C35.7699 11.9294 35.1179 11.404 33.9324 11.404H32.4506V16.5996H33.4583V14.498H33.5768L34.9401 16.5996H36.1848L34.5845 14.4397C35.2957 14.3229 35.8292 13.6807 35.7699 12.9218ZM28.9539 16.5996H31.799V15.724H29.9615V14.3229H31.7397V13.4472H29.9615V12.2797H31.799V11.404H28.9539V16.5996ZM25.9908 14.9067L24.6275 11.404H23.5606L25.7537 16.7164H26.2872L28.4803 11.404H27.4134L25.9908 14.9067ZM13.9575 14.0311C13.9575 15.4905 15.143 16.7164 16.6248 16.7164C17.099 16.7164 17.5139 16.5997 17.9288 16.4246V15.257C17.6324 15.6073 17.2175 15.8408 16.7433 15.8408C15.795 15.8408 15.0244 15.1402 15.0244 14.2062V14.0894C14.9651 13.1554 15.7357 12.3381 16.6841 12.2797C17.1582 12.2797 17.6324 12.5132 17.9288 12.8635V11.6959C17.5732 11.4624 17.099 11.4041 16.6841 11.4041C15.143 11.2873 13.9575 12.5132 13.9575 14.0311ZM12.1206 13.389C11.5279 13.1555 11.35 13.0387 11.35 12.7468C11.4093 12.3966 11.7057 12.1047 12.0613 12.163C12.3577 12.163 12.6541 12.3382 12.8911 12.5717L13.4246 11.8712C13.0097 11.5209 12.4762 11.2874 11.9428 11.2874C11.113 11.229 10.4017 11.8712 10.3424 12.6884V12.7468C10.3424 13.4474 10.6388 13.856 11.5871 14.1479C11.8242 14.2063 12.0613 14.323 12.2984 14.4398C12.4762 14.5565 12.5948 14.7317 12.5948 14.9652C12.5948 15.3738 12.2391 15.7241 11.8835 15.7241H11.8242C11.35 15.7241 10.9351 15.4322 10.7573 15.0236L10.1053 15.6657C10.461 16.3079 11.1722 16.6581 11.8835 16.6581C12.8319 16.7165 13.6024 16.016 13.6617 15.0819V14.9068C13.6024 14.2063 13.3061 13.856 12.1206 13.389ZM8.68234 16.5996H9.68999V11.404H8.68234V16.5996ZM6.66699 15.3155C6.31135 15.6073 5.77789 15.7825 5.30371 15.7241H5.00734V12.2798H5.30371C5.77789 12.2214 6.31135 12.3966 6.66699 12.6884C7.02263 13.0387 7.20045 13.5057 7.20045 13.9728C7.20045 14.4982 7.02263 14.9652 6.66699 15.3155ZM5.48183 11.404H4V16.5996H5.48183C6.13383 16.658 6.78583 16.4245 7.31929 16.0159C7.91202 15.4905 8.26766 14.7899 8.26766 14.031C8.32693 12.6299 7.20074 11.4624 5.77819 11.404H5.48183ZM20.9519 11.2837C19.47 11.2837 18.2253 12.4513 18.2253 13.9691C18.2253 15.4285 19.4108 16.6545 20.9519 16.7128C22.493 16.7712 23.6784 15.5453 23.7377 14.0275C23.6784 12.5096 22.493 11.2837 20.9519 11.2837Z" fill="white"/>
</svg>
