<svg width="41" height="28" viewBox="0 0 41 28" fill="none" xmlns="http://www.w3.org/2000/svg">
<path d="M37.1872 28H3.80006C1.70304 28 0 26.3479 0 24.3135V3.68648C0 1.65214 1.70304 0 3.80006 0H37.1999C39.297 0 41 1.65214 41 3.68648V24.3135C40.9873 26.3479 39.2843 28 37.1872 28Z" fill="#36495D"/>
<path d="M23.9441 8.00146H17.0557V20.0103H23.9441V8.00146Z" fill="#F16522"/>
<path d="M17.4872 14.0064C17.4872 11.5652 18.6692 9.40754 20.4993 8.00199C19.1648 6.97865 17.4745 6.37451 15.6317 6.37451C11.2851 6.37451 7.76465 9.78975 7.76465 14.0064C7.76465 18.223 11.2851 21.6383 15.6317 21.6383C17.4618 21.6383 19.1521 21.0341 20.4993 20.0108C18.6692 18.6052 17.4872 16.4353 17.4872 14.0064Z" fill="#E41B24"/>
<path d="M33.221 14.0059C33.221 18.2226 29.7005 21.6378 25.354 21.6378C23.5238 21.6378 21.8335 21.0337 20.4863 20.0103C22.3165 18.6171 23.4857 16.4472 23.4857 14.0059C23.4857 11.5647 22.3165 9.40708 20.4863 8.00153C21.8208 6.9782 23.5111 6.37406 25.354 6.37406C29.7005 6.36173 33.221 9.78929 33.221 14.0059ZM32.4711 18.7281V18.4815H32.5728V18.4322H32.3186V18.4815H32.4203V18.7281H32.4711ZM32.9795 18.7281V18.4322H32.9032L32.8143 18.6418L32.7253 18.4322H32.6491V18.7281H32.6999V18.5062L32.7889 18.7034H32.8524L32.9414 18.5062V18.7281H32.9795Z" fill="#F89E1C"/>
</svg>
