<svg width="41" height="28" viewBox="0 0 41 28" fill="none" xmlns="http://www.w3.org/2000/svg">
<rect width="41" height="28" rx="5" fill="#0066B2"/>
<path d="M19.0652 18.497H16.9824L18.2843 10.4946H20.3652L19.0652 18.497Z" fill="white"/>
<path d="M15.2293 10.493L13.243 15.997L13.0076 14.8153L12.3065 11.2169C12.22 10.7542 11.7888 10.4386 11.3217 10.496H8.03841L8 10.6309C8.76876 10.8232 9.50366 11.1317 10.1793 11.5458L11.9894 18.4974H14.1559L17.4707 10.495L15.2293 10.493Z" fill="white"/>
<path fill-rule="evenodd" clip-rule="evenodd" d="M33.5287 18.4974H31.6162L31.369 17.3087H28.72L28.2857 18.4974H26.1191L29.2261 11.0918C29.3821 10.7046 29.771 10.4631 30.1873 10.495H31.8614L33.5287 18.4974ZM30.4185 12.6714L29.3234 15.6662H31.034L30.4185 12.6714Z" fill="white"/>
<path d="M26.281 12.4181L26.5764 10.6997C25.9751 10.485 25.3436 10.3673 24.7053 10.3511C23.6713 10.3511 21.2162 10.8031 21.2162 13.0001C21.2162 15.0682 24.0977 15.0938 24.0977 16.179C24.0977 17.2643 21.5136 17.0712 20.6598 16.3858L20.3496 18.1821C21.0938 18.4936 21.8946 18.6476 22.7013 18.6341C24.1223 18.6341 26.2672 17.8985 26.2672 15.8944C26.2672 13.8136 23.3601 13.6196 23.3601 12.7155C23.3601 11.8115 25.3897 11.9267 26.281 12.4181Z" fill="white"/>
<path d="M13.0106 14.8133L12.3094 11.2149C12.2229 10.7523 11.7917 10.4366 11.3246 10.494H8.04134L8.00293 10.629C9.13378 10.9171 10.1887 11.4469 11.0952 12.182C11.9552 12.8741 12.6162 13.7822 13.0106 14.8133Z" fill="#F9A533"/>
</svg>
