<svg width="24" height="18" viewBox="0 0 24 18" fill="none" xmlns="http://www.w3.org/2000/svg">
<rect width="24" height="18" rx="4" fill="black"/>
<path d="M8.03977 8H7.51136C7.48011 7.84801 7.42543 7.71449 7.3473 7.59943C7.2706 7.48438 7.17685 7.38778 7.06605 7.30966C6.95668 7.23011 6.83523 7.17045 6.7017 7.13068C6.56818 7.09091 6.42898 7.07102 6.28409 7.07102C6.01989 7.07102 5.78054 7.13778 5.56605 7.27131C5.35298 7.40483 5.18324 7.60156 5.05682 7.86151C4.93182 8.12145 4.86932 8.44034 4.86932 8.81818C4.86932 9.19602 4.93182 9.51491 5.05682 9.77486C5.18324 10.0348 5.35298 10.2315 5.56605 10.3651C5.78054 10.4986 6.01989 10.5653 6.28409 10.5653C6.42898 10.5653 6.56818 10.5455 6.7017 10.5057C6.83523 10.4659 6.95668 10.407 7.06605 10.3288C7.17685 10.2493 7.2706 10.152 7.3473 10.0369C7.42543 9.92045 7.48011 9.78693 7.51136 9.63636H8.03977C8 9.85937 7.92756 10.0589 7.82244 10.2351C7.71733 10.4112 7.58665 10.5611 7.4304 10.6847C7.27415 10.8068 7.09872 10.8999 6.90412 10.9638C6.71094 11.0277 6.50426 11.0597 6.28409 11.0597C5.91193 11.0597 5.58097 10.9688 5.29119 10.7869C5.00142 10.6051 4.77344 10.3466 4.60724 10.0114C4.44105 9.67614 4.35795 9.27841 4.35795 8.81818C4.35795 8.35795 4.44105 7.96023 4.60724 7.625C4.77344 7.28977 5.00142 7.03125 5.29119 6.84943C5.58097 6.66761 5.91193 6.5767 6.28409 6.5767C6.50426 6.5767 6.71094 6.60866 6.90412 6.67259C7.09872 6.73651 7.27415 6.83026 7.4304 6.95384C7.58665 7.07599 7.71733 7.22514 7.82244 7.40128C7.92756 7.57599 8 7.77557 8.03977 8ZM9.07262 11H8.51864L10.1209 6.63636H10.6664L12.2686 11H11.7147L10.4107 7.3267H10.3766L9.07262 11ZM9.27717 9.29545H11.5101V9.7642H9.27717V9.29545ZM15.3347 7.72727C15.3091 7.51136 15.2054 7.34375 15.0236 7.22443C14.8418 7.10511 14.6188 7.04545 14.3546 7.04545C14.1614 7.04545 13.9924 7.0767 13.8475 7.1392C13.704 7.2017 13.5918 7.28764 13.5108 7.39702C13.4313 7.50639 13.3915 7.63068 13.3915 7.76989C13.3915 7.88636 13.4192 7.98651 13.4746 8.07031C13.5314 8.1527 13.6039 8.22159 13.6919 8.27699C13.78 8.33097 13.8723 8.37571 13.9689 8.41122C14.0655 8.44531 14.1543 8.47301 14.2353 8.49432L14.6784 8.61364C14.7921 8.64347 14.9185 8.68466 15.0577 8.73722C15.1983 8.78977 15.3326 8.86151 15.4604 8.95241C15.5897 9.0419 15.6962 9.15696 15.78 9.29759C15.8638 9.43821 15.9057 9.6108 15.9057 9.81534C15.9057 10.0511 15.8439 10.2642 15.7203 10.4545C15.5982 10.6449 15.4192 10.7962 15.1834 10.9084C14.949 11.0206 14.6642 11.0767 14.329 11.0767C14.0165 11.0767 13.7459 11.0263 13.5172 10.9254C13.29 10.8246 13.111 10.6839 12.9803 10.5036C12.851 10.3232 12.7779 10.1136 12.7608 9.875H13.3063C13.3205 10.0398 13.3759 10.1761 13.4725 10.2841C13.5705 10.3906 13.6941 10.4702 13.8432 10.5227C13.9938 10.5739 14.1557 10.5994 14.329 10.5994C14.5307 10.5994 14.7118 10.5668 14.8723 10.5014C15.0328 10.4347 15.16 10.3423 15.2537 10.2244C15.3475 10.1051 15.3944 9.96591 15.3944 9.80682C15.3944 9.66193 15.3539 9.54403 15.2729 9.45312C15.1919 9.36222 15.0854 9.28835 14.9533 9.23153C14.8212 9.17472 14.6784 9.125 14.525 9.08239L13.9881 8.92898C13.6472 8.83097 13.3773 8.69105 13.1784 8.50923C12.9796 8.32741 12.8801 8.08949 12.8801 7.79545C12.8801 7.55114 12.9462 7.33807 13.0783 7.15625C13.2118 6.97301 13.3908 6.83097 13.6152 6.73011C13.8411 6.62784 14.0932 6.5767 14.3716 6.5767C14.6529 6.5767 14.9029 6.62713 15.1216 6.72798C15.3404 6.82741 15.5137 6.96378 15.6415 7.13707C15.7708 7.31037 15.839 7.5071 15.8461 7.72727H15.3347ZM16.7745 11V6.63636H17.3029V8.57955H19.6296V6.63636H20.158V11H19.6296V9.0483H17.3029V11H16.7745Z" fill="white"/>
</svg>
