<svg width="20" height="20" viewBox="0 0 20 20" fill="none" xmlns="http://www.w3.org/2000/svg">
    <circle cx="10" cy="10" r="7.5" stroke="#003764" stroke-opacity="0.25" stroke-width="1.2" />
    <path
        d="M10.4154 6.24992C10.4154 6.48004 10.2288 6.66659 9.9987 6.66659C9.76858 6.66659 9.58203 6.48004 9.58203 6.24992C9.58203 6.0198 9.76858 5.83325 9.9987 5.83325C10.2288 5.83325 10.4154 6.0198 10.4154 6.24992Z"
        fill="#003764" fill-opacity="0.25" />
    <path
        d="M9.9987 6.79159C10.2979 6.79159 10.5404 6.54907 10.5404 6.24992C10.5404 5.95076 10.2979 5.70825 9.9987 5.70825C9.69954 5.70825 9.45703 5.95076 9.45703 6.24992C9.45703 6.54907 9.69954 6.79159 9.9987 6.79159Z"
        stroke="#003764" stroke-opacity="0.25" stroke-width="0.25" />
    <path d="M10 14.1666V8.33325" stroke="#003764" stroke-opacity="0.25" stroke-width="1.25" />
</svg>