<svg
    fill="none"
    height="18"
    viewBox="0 0 24 18"
    width="24"
    xmlns="http://www.w3.org/2000/svg"
>
    <rect fill="#FEC942" height="18" rx="4" width="24" />
    <path
        d="M11.7337 14.9994H10.0803C9.99626 15.0042 9.91525 14.9669 9.86344 14.8995C9.81092 14.8311 9.78949 14.7432 9.80448 14.6577C9.83069 14.4972 9.86344 14.2855 9.90471 14.0164C9.92764 13.8685 9.95253 13.708 9.97939 13.5322C10.0613 12.9995 10.117 12.6418 10.1543 12.4081C10.1692 12.3144 10.1868 12.2034 10.2074 12.0751V12.0618C10.241 11.8491 10.282 11.5907 10.3305 11.2866L10.396 10.8743V10.871C10.4432 10.5749 10.4803 10.3393 10.5074 10.1644C10.5104 10.0925 10.5426 10.025 10.5964 9.9782C10.6502 9.93136 10.7207 9.90932 10.7911 9.91732H11.7868C12.2645 9.92255 12.7413 9.87521 13.209 9.77613C13.9131 9.63328 14.5663 9.2999 15.0996 8.81113C15.5669 8.35476 15.9177 7.78945 16.1215 7.16417C16.2211 6.87369 16.2982 6.57577 16.3521 6.2731C16.3567 6.24513 16.362 6.22915 16.3685 6.22382C16.3724 6.21868 16.3785 6.21572 16.3849 6.21582H16.3914C16.4058 6.22196 16.4195 6.22979 16.4321 6.23913C16.7758 6.50383 17.0058 6.89317 17.0741 7.32601C17.1516 7.77881 17.1427 8.24254 17.0479 8.69192C16.9238 9.56161 16.4911 10.3551 15.8313 10.9229C15.1025 11.451 14.2194 11.713 13.3256 11.6662H13.038C12.931 11.6653 12.8274 11.7046 12.7472 11.7767C12.664 11.8501 12.6086 11.9507 12.5906 12.0611L12.5637 12.1903L12.2015 14.5066L12.1877 14.6071C12.169 14.7187 12.1113 14.8197 12.0252 14.8915C11.9442 14.9623 11.8406 15.0007 11.7337 14.9994Z"
        fill="#009CDE"
    />
    <path
        d="M9.26355 13.6676H7.3212C7.22851 13.6696 7.13982 13.6293 7.07947 13.5577C7.01657 13.4875 6.98881 13.3918 7.00413 13.298L8.53116 3.44824C8.55036 3.32187 8.61502 3.20724 8.71262 3.12657C8.80688 3.04393 8.92749 2.99896 9.05196 3.00002H12.9917C13.2077 3.00869 13.4224 3.0379 13.633 3.08728C13.8841 3.13558 14.1303 3.20691 14.3687 3.30039C14.8026 3.45636 15.1788 3.74419 15.4463 4.12487C15.7 4.51345 15.8299 4.97196 15.8184 5.43817C15.8073 5.97885 15.7052 6.51359 15.5164 7.0192C15.2155 8.00128 14.4775 8.78213 13.5243 9.12701C12.9892 9.31119 12.4285 9.40676 11.8636 9.41005C11.8571 9.41405 11.5754 9.41471 11.274 9.41471L10.6844 9.41005C10.2955 9.3697 9.94779 9.6568 9.90685 10.0521C9.89834 10.088 9.69919 11.3487 9.34675 13.601C9.34676 13.6224 9.33735 13.6426 9.32111 13.6562C9.30487 13.6697 9.2835 13.6752 9.2629 13.671L9.26355 13.6676Z"
        fill="#003087"
    />
</svg>