<?xml version="1.0" standalone="no"?>
<!DOCTYPE svg PUBLIC "-//W3C//DTD SVG 20010904//EN"
 "http://www.w3.org/TR/2001/REC-SVG-20010904/DTD/svg10.dtd">
<svg version="1.0" xmlns="http://www.w3.org/2000/svg"
 width="2888.000000pt" height="2888.000000pt" viewBox="0 0 2888.000000 2888.000000"
 preserveAspectRatio="xMidYMid meet">
<metadata>
Created by potrace 1.14, written by Peter Selinger 2001-2017
</metadata>
<g transform="translate(0.000000,2888.000000) scale(0.100000,-0.100000)"
fill="#000000" stroke="none">
<path d="M13910 28704 c-764 -34 -1236 -80 -1845 -179 -2592 -421 -5043 -1554
-7025 -3250 -537 -459 -1146 -1068 -1605 -1605 -1848 -2160 -3022 -4865 -3345
-7710 -63 -557 -85 -971 -85 -1610 0 -639 22 -1053 85 -1610 323 -2845 1497
-5550 3345 -7710 459 -537 1068 -1146 1605 -1605 2172 -1858 4906 -3039 7755
-3349 569 -62 859 -76 1565 -76 706 0 996 14 1565 76 2849 310 5583 1491 7755
3349 537 459 1146 1068 1605 1605 1848 2160 3022 4865 3345 7710 63 557 85
971 85 1610 0 639 -22 1053 -85 1610 -323 2845 -1497 5550 -3345 7710 -459
537 -1068 1146 -1605 1605 -1756 1503 -3898 2574 -6167 3084 -790 177 -1520
279 -2383 331 -170 11 -1070 21 -1220 14z m-1964 -10441 c12 -7 26 -20 30 -30
5 -10 12 -943 15 -2073 l5 -2055 22 -115 c51 -266 110 -447 216 -665 120 -245
248 -426 441 -624 387 -397 839 -631 1405 -727 147 -25 505 -30 660 -10 716
94 1340 487 1743 1096 144 218 283 547 337 795 58 272 54 120 57 2322 2 2237
-3 2070 65 2091 45 14 1164 14 1200 1 14 -6 31 -23 38 -38 8 -20 10 -555 7
-2032 -3 -1761 -6 -2021 -20 -2148 -56 -497 -145 -857 -304 -1230 -396 -929
-1194 -1626 -2287 -2000 -1194 -409 -2345 -215 -3381 568 -446 337 -755 672
-1010 1096 -284 471 -450 1011 -494 1605 -6 82 -11 910 -12 2120 -2 2137 -5
2026 49 2054 33 18 1187 16 1218 -1z"/>
</g>
</svg>
