 <svg fill="none"  viewBox="0 0 119 20" xmlns="http://www.w3.org/2000/svg">
                <path
                    d="M19.8333 0.277778V10.2778C19.8333 15.6944 15.4417 20 9.91667 20C4.39167 20 0 15.6944 0 10.2778V0.277778H3.4V10.2778C3.4 13.75 6.375 16.6667 9.91667 16.6667C13.4583 16.6667 16.4333 13.75 16.4333 10.2778V0.277778H19.8333ZM26.4917 19.7222V9.72222C26.4917 6.25 29.4667 3.33333 33.0083 3.33333C36.55 3.33333 39.525 6.25 39.525 9.72222V19.7222H42.925V9.72222C42.925 4.30556 38.5333 0 33.0083 0C27.4833 0 23.0917 4.30556 23.0917 9.72222V19.7222H26.4917ZM62.7583 0.277778C57.2333 0.277778 52.8417 4.58333 52.8417 10C52.8417 15.4167 57.2333 19.7222 62.7583 19.7222H69.4167V16.3889H62.7583C59.2167 16.3889 56.2417 13.4722 56.2417 10C56.2417 6.52778 59.2167 3.61111 62.7583 3.61111H69.4167V0.277778H62.7583ZM49.725 19.7222V0.277778H46.325V19.7222H49.725ZM76.3583 19.7222V0.277778H72.9583V19.7222H76.3583ZM115.6 0.277778V2.08333C115.6 5.55556 112.625 8.47222 109.083 8.47222C105.542 8.47222 102.567 5.55556 102.567 2.08333V0.277778H99.1667V2.08333C99.1667 6.80556 102.708 10.8333 107.383 11.6667V19.7222H110.783V11.6667C115.458 10.9722 119 6.94445 119 2.22222V0.277778H115.6ZM79.475 0.277778V3.61111H86.1333V19.7222H89.5333V3.75H96.3333V0.277778H79.475ZM117.442 18.75C117.442 18.6111 117.583 18.6111 117.583 18.4722C117.725 18.3333 117.725 18.3333 117.867 18.3333C118.008 18.3333 118.008 18.3333 118.15 18.3333C118.292 18.3333 118.433 18.3333 118.433 18.3333C118.575 18.3333 118.575 18.4722 118.717 18.4722C118.858 18.6111 118.858 18.6111 118.858 18.75C118.858 18.8889 118.858 18.8889 118.858 19.0278C118.858 19.1667 118.858 19.3056 118.858 19.3056C118.858 19.4444 118.717 19.4444 118.717 19.5833C118.575 19.7222 118.575 19.7222 118.433 19.7222C118.292 19.7222 118.292 19.7222 118.15 19.7222C118.008 19.7222 117.867 19.7222 117.867 19.7222C117.725 19.7222 117.725 19.5833 117.583 19.5833C117.583 19.4444 117.583 19.4444 117.442 19.3056C117.442 19.1667 117.442 19.1667 117.442 19.0278C117.442 18.8889 117.442 18.75 117.442 18.75ZM117.583 19.3056C117.583 19.4444 117.725 19.4444 117.725 19.5833C117.725 19.5833 117.867 19.7222 118.008 19.7222C118.15 19.7222 118.15 19.7222 118.292 19.7222C118.433 19.7222 118.433 19.7222 118.575 19.7222C118.717 19.7222 118.717 19.5833 118.858 19.5833C118.858 19.5833 119 19.4444 119 19.3056C119 19.1667 119 19.1667 119 19.0278C119 18.8889 119 18.8889 119 18.75C119 18.6111 118.858 18.6111 118.858 18.4722C118.858 18.4722 118.717 18.3333 118.575 18.3333C118.433 18.3333 118.433 18.3333 118.292 18.3333C118.15 18.3333 118.15 18.3333 118.008 18.3333C117.867 18.3333 117.867 18.4722 117.725 18.4722C117.725 18.4722 117.583 18.6111 117.583 18.75C117.583 18.8889 117.583 18.8889 117.583 19.0278C117.442 19.1667 117.442 19.1667 117.583 19.3056ZM118.292 18.6111C118.433 18.6111 118.433 18.6111 118.575 18.6111L118.717 18.75V18.8889C118.717 18.8889 118.717 18.8889 118.717 19.0278C118.717 19.0278 118.717 19.0278 118.575 19.0278C118.575 19.0278 118.575 19.0278 118.433 19.0278L118.717 19.4444L118.433 19.0278H118.292V19.4444V18.6111ZM118.292 19.0278C118.292 19.0278 118.433 19.0278 118.292 19.0278C118.433 19.0278 118.433 19.0278 118.433 18.8889C118.433 18.8889 118.433 18.8889 118.433 18.75V18.6111C118.433 18.6111 118.433 18.6111 118.292 18.6111C118.292 18.6111 118.292 18.6111 118.15 18.6111H117.867V19.0278H118.292Z"
                    fill="#153862"
                />
            </svg>