<svg width="85" height="85" viewBox="0 0 85 85" fill="none" xmlns="http://www.w3.org/2000/svg">
<rect width="84.6718" height="84.6718" rx="13.5475" fill="#E0EBF5"/>
<path d="M35.5649 21.6915L28.763 35.4181C28.6051 35.7371 28.5174 36.0863 28.5057 36.4421C28.4941 36.7979 28.5588 37.1521 28.6955 37.4808L40.255 65.4557C40.5077 66.066 40.9923 66.5511 41.6024 66.8043C42.2124 67.0576 42.8981 67.0583 43.5087 66.8063L54.1719 62.3986L64.8291 57.997C65.4394 57.7443 65.9244 57.2597 66.1777 56.6497C66.4309 56.0396 66.4316 55.354 66.1796 54.7434L54.6139 26.7622C54.4785 26.4349 54.2748 26.1403 54.0166 25.8978C53.7583 25.6554 53.4513 25.4709 53.116 25.3564L38.5975 20.4453C38.0268 20.2512 37.4051 20.2704 36.8475 20.4995C36.2899 20.7287 35.8342 21.1522 35.5649 21.6915V21.6915Z" stroke="#75A4D3" stroke-width="2.5" stroke-linecap="round" stroke-linejoin="round"/>
<path d="M43.1408 28.0699C42.9197 27.536 42.5454 27.0797 42.065 26.7585C41.5846 26.4373 41.0197 26.2658 40.4419 26.2656C39.864 26.2654 39.2991 26.4366 38.8185 26.7574C38.3379 27.0783 37.9632 27.5344 37.7418 28.0682C37.5204 28.6019 37.4622 29.1894 37.5746 29.7562C37.687 30.323 37.965 30.8438 38.3733 31.2526C38.7817 31.6615 39.3021 31.9401 39.8687 32.0533C40.4354 32.1664 41.0229 32.109 41.557 31.8883C41.9118 31.7417 42.2342 31.5266 42.5058 31.2553C42.7774 30.9841 42.993 30.6619 43.1401 30.3073C43.2871 29.9527 43.3629 29.5726 43.363 29.1887C43.3632 28.8048 43.2876 28.4246 43.1408 28.0699V28.0699Z" stroke="#75A4D3" stroke-width="2.5" stroke-linecap="round" stroke-linejoin="round"/>
<path d="M29.3283 28.1929L24.5277 33.2329C24.304 33.471 24.1336 33.754 24.0277 34.0631C23.9219 34.3722 23.883 34.7002 23.9138 35.0255L26.5228 62.7549C26.5505 63.0544 26.637 63.3455 26.7773 63.6116C26.9176 63.8777 27.1089 64.1136 27.3404 64.3057C27.5718 64.4978 27.8389 64.6424 28.1262 64.7313C28.4136 64.8202 28.7157 64.8516 29.0152 64.8237L36.0136 64.1668" stroke="#75A4D3" stroke-width="2.5" stroke-linecap="round" stroke-linejoin="round"/>
<path d="M39.9973 27.7753C36.9279 22.6862 29.0087 15.5344 26.682 18.6407C24.9815 20.9059 29.1376 24.2946 33.2322 26.4064" stroke="#75A4D3" stroke-width="2.5" stroke-linecap="round" stroke-linejoin="round"/>
<path d="M45.0989 37.9163L48.5796 40.9857C48.7039 41.0964 48.8533 41.1749 49.0149 41.2145C49.1765 41.2541 49.3453 41.2535 49.5066 41.2128L53.9942 40.0771C54.1803 40.0299 54.3759 40.0359 54.5588 40.0944C54.7417 40.1529 54.9045 40.2616 55.0286 40.4082C55.1528 40.5547 55.2332 40.7331 55.2609 40.9231C55.2886 41.1132 55.2623 41.3071 55.1851 41.483L53.3434 45.7311C53.276 45.8834 53.2475 46.0501 53.2604 46.2161C53.2732 46.3822 53.3271 46.5425 53.4171 46.6826L55.8727 50.5992C55.9735 50.7617 56.0272 50.9491 56.0278 51.1404C56.0283 51.3317 55.9756 51.5193 55.8756 51.6823C55.7756 51.8454 55.6322 51.9775 55.4615 52.0637C55.2908 52.15 55.0994 52.187 54.9089 52.1708L50.2985 51.7472C50.1329 51.7313 49.9658 51.7559 49.8118 51.819C49.6577 51.8821 49.5214 51.9818 49.4145 52.1094L46.4556 55.6638C46.3319 55.81 46.1699 55.9189 45.9878 55.9782C45.8057 56.0375 45.6107 56.045 45.4246 55.9997C45.2386 55.9545 45.0687 55.8583 44.9342 55.722C44.7997 55.5857 44.7058 55.4146 44.663 55.228L43.644 50.7159C43.6076 50.5546 43.5328 50.4044 43.4259 50.2783C43.319 50.1522 43.1832 50.0538 43.0301 49.9915L38.7328 48.2726C38.5549 48.2005 38.4007 48.0803 38.2874 47.9253C38.1741 47.7704 38.1063 47.5869 38.0916 47.3955C38.077 47.2041 38.116 47.0124 38.2043 46.842C38.2927 46.6716 38.4268 46.5292 38.5916 46.4309L42.5697 44.0674C42.7126 43.9829 42.833 43.8651 42.9207 43.724C43.0083 43.5829 43.0606 43.4227 43.0731 43.2571L43.38 38.6406C43.3858 38.4442 43.4479 38.2535 43.559 38.0913C43.6701 37.9291 43.8255 37.8023 44.0066 37.726C44.1878 37.6496 44.387 37.627 44.5807 37.6607C44.7743 37.6945 44.9542 37.7832 45.0989 37.9163Z" stroke="#75A4D3" stroke-width="2.5" stroke-linecap="round" stroke-linejoin="round"/>
</svg>
