<svg width="24" height="24" viewBox="0 0 24 24" fill="none" xmlns="http://www.w3.org/2000/svg">
<path d="M1 7C1 3.68629 3.68629 1 7 1H17C20.3137 1 23 3.68629 23 7V17C23 20.3137 20.3137 23 17 23H7C3.68629 23 1 20.3137 1 17V7Z" fill="#99BCDF"/>
<path d="M6 11.7333L10.1739 16L18 8" stroke="white" stroke-width="2"/>
<path d="M17 0.5H7C3.41015 0.5 0.5 3.41015 0.5 7V17C0.5 20.5899 3.41015 23.5 7 23.5H17C20.5899 23.5 23.5 20.5899 23.5 17V7C23.5 3.41015 20.5899 0.5 17 0.5Z" stroke="#99BCDF" stroke-opacity="0.25"/>
</svg>
