<svg width="12" height="12" viewBox="0 0 12 12" fill="none" xmlns="http://www.w3.org/2000/svg">
<path fill-rule="evenodd" clip-rule="evenodd" d="M5.75408 0.347995L0.354157 5.74792C0.138161 5.96392 0.000161171 6.26992 0.000161171 6.59991C0.000161171 6.92991 0.13216 7.2299 0.354157 7.4459L4.5541 11.6458C4.7701 11.8678 5.07009 11.9998 5.40009 11.9998C5.73008 11.9998 6.03008 11.8678 6.24608 11.6518L11.646 6.25192C11.868 6.02992 12 5.72992 12 5.39993V1.19998C12 0.539993 11.46 0 10.8 0H6.60007C6.27008 0 5.97008 0.131998 5.75408 0.347995ZM8.5 5C7.67157 5 7 4.32843 7 3.5C7 2.67157 7.67157 2 8.5 2C9.32843 2 10 2.67157 10 3.5C10 4.32843 9.32843 5 8.5 5Z" fill="#009ECF"/>
</svg>
