<svg width="60" height="60" viewBox="0 0 60 60" fill="none" xmlns="http://www.w3.org/2000/svg">
    <rect width="60" height="60" rx="30" fill="white" />
    <circle opacity="0.5" cx="32" cy="30" r="12" fill="#6DB074" />
    <path d="M42 30C42 23.3726 36.6274 18 30 18C23.3726 18 18 23.3726 18 30C18 36.6274 23.3726 42 30 42"
        stroke="#003764" stroke-width="1.6" stroke-linecap="round" stroke-linejoin="round" />
    <path d="M34 38L37 41L43 35" stroke="#003764" stroke-width="1.6" stroke-linecap="round" stroke-linejoin="round" />
    <path
        d="M30.4563 36C30.1951 36 29.9834 35.7882 29.9834 35.527V34.5224C29.3818 34.5129 28.8264 34.4603 28.317 34.3646C27.9942 34.3003 27.6991 34.2243 27.4319 34.1366C27.1704 34.0507 27.0073 33.7988 27.0073 33.5236C27.0073 33.0219 27.5343 32.6754 28.0163 32.8147C28.1359 32.8493 28.2604 32.883 28.3898 32.9157C28.938 33.0544 29.4692 33.1333 29.9834 33.1524V30.4626C29.28 30.2283 28.7076 29.9845 28.2661 29.731C27.8295 29.4776 27.5094 29.1835 27.3056 28.8488C27.1019 28.5093 27 28.1028 27 27.6294C27 27.1417 27.1237 26.7233 27.3711 26.3742C27.6234 26.0203 27.9726 25.7406 28.4189 25.535C28.8701 25.3293 29.3915 25.2074 29.9834 25.1692V24.473C29.9834 24.2118 30.1951 24 30.4563 24C30.7176 24 30.9293 24.2118 30.9293 24.473V25.1476C31.4678 25.162 31.965 25.2218 32.421 25.327C32.6444 25.3756 32.8626 25.4338 33.0757 25.5016C33.4516 25.6212 33.6222 26.0412 33.4762 26.4077C33.3273 26.7817 32.9045 26.9616 32.5179 26.8491C32.3713 26.8065 32.2226 26.7677 32.0717 26.7328C31.6788 26.642 31.298 26.5798 30.9293 26.5463V29.1715C31.5211 29.3628 32.0475 29.5684 32.5083 29.7884C32.974 30.0084 33.3378 30.2857 33.5998 30.6204C33.8666 30.9504 34 31.3831 34 31.9187C34 32.6216 33.738 33.2026 33.2141 33.6617C32.6902 34.116 31.9286 34.3885 30.9293 34.4794V35.527C30.9293 35.7882 30.7176 36 30.4563 36ZM30.9293 33.095C31.395 33.0377 31.7419 32.9181 31.9699 32.7364C32.1979 32.5499 32.3119 32.3084 32.3119 32.012C32.3119 31.8111 32.2633 31.6414 32.1663 31.5027C32.0742 31.364 31.9262 31.2397 31.7225 31.1297C31.5236 31.0197 31.2592 30.9121 30.9293 30.8069V33.095ZM29.9834 28.8201V26.575C29.702 26.6037 29.4643 26.6611 29.2703 26.7472C29.0762 26.8332 28.9307 26.9456 28.8337 27.0843C28.7367 27.223 28.6881 27.3879 28.6881 27.5792C28.6881 27.7896 28.7318 27.9689 28.8191 28.1172C28.9064 28.2654 29.0447 28.3945 29.2339 28.5045C29.4279 28.6145 29.6778 28.7197 29.9834 28.8201Z"
        fill="#003764" />
</svg>