<svg width="20" height="20" viewBox="0 0 20 20" fill="none" xmlns="http://www.w3.org/2000/svg">
    <path
        d="M16.6075 7.20827C17.2074 8.86557 17.1413 10.6866 16.4228 12.2974C15.7157 13.876 14.4427 15.1413 12.8479 15.8506C11.2821 16.5672 9.52185 16.7592 7.83523 16.3972C6.10054 16.0375 4.57923 15.0182 3.60075 13.5598C2.63843 12.0982 2.2885 10.3251 2.6246 8.61396C2.9528 6.95621 3.85235 5.46161 5.17054 4.38392C5.81548 3.84398 6.54068 3.40501 7.32074 3.08237C8.1036 2.7532 8.93805 2.55947 9.78753 2.50968C10.6599 2.46351 11.5331 2.58283 12.3599 2.86112C13.2041 3.15097 13.9867 3.59222 14.6684 4.16268C15.473 4.82647 15.5126 5.85472 14.9849 6.21915C14.7028 6.38358 14.3742 6.45342 14.0484 6.41823C13.7226 6.38304 13.4172 6.24467 13.1777 6.02389C13.1349 5.98819 13.0952 5.94897 13.059 5.90671C12.1693 5.01856 11.0035 4.45032 9.74796 4.2928C9.08251 4.19895 8.40448 4.24561 7.75866 4.4296C7.11283 4.61358 6.51393 4.93071 6.0016 5.36008C4.9483 6.2311 4.28099 7.47326 4.14161 8.82226C4.00596 10.1451 4.33677 11.4735 5.07823 12.5837C5.79977 13.7251 6.90716 14.5781 8.20458 14.9916C8.85656 15.1948 9.54365 15.265 10.224 15.1978C10.9043 15.1307 11.5637 14.9277 12.162 14.6011C13.3158 13.9187 14.1785 12.8454 14.5892 11.5815C14.7957 10.9827 14.8939 10.3526 14.8794 9.72025C14.8497 9.10398 14.7159 8.497 14.4837 7.92418C14.3597 7.65092 14.3274 7.34568 14.3915 7.05304C14.4555 6.7604 14.6126 6.49566 14.8399 6.29724C15.3016 5.93281 16.159 6.20609 16.502 7.06511L16.6075 7.20827Z"
        fill="#173962" />
</svg>