<svg width="24" height="24" viewBox="0 0 24 24" fill="none" xmlns="http://www.w3.org/2000/svg">
<path d="M14.7505 3.12125e-05C15.4113 3.12125e-05 16.0761 0.0342723 16.7359 0.0626411C17.166 0.0802492 17.5961 0.139916 18 0.18198L17.9698 4.04698H17.6535C17.2163 4.04698 16.7802 4.04112 16.344 4.04112C16.0166 4.04112 15.6893 4.04112 15.3609 4.05481C14.3073 4.08905 13.5307 4.47349 13.4763 5.75204C13.443 6.67354 13.4189 8.70826 13.4179 8.81489C13.4723 8.81489 14.5148 8.81489 15.5634 8.81489C16.0882 8.81489 16.6009 8.81489 16.9575 8.81489H17.8096C17.5961 10.2989 17.3997 11.7242 17.1871 13.1573H13.4189L13.3342 24H8.70074L8.78536 13.1416H5L5.03424 8.82468H8.83775V8.4999C8.8448 7.63025 8.83774 6.75963 8.86695 5.88998C8.87178 5.33547 8.92028 4.78213 9.01201 4.23481C9.11378 3.59324 9.34546 2.97763 9.69367 2.42354C10.0419 1.86945 10.4997 1.38787 11.0407 1.00663C12.0208 0.347516 13.1856 -0.00381294 14.3778 3.12125e-05C14.5047 0.00100945 14.6276 3.12125e-05 14.7505 3.12125e-05Z" fill="#99BCDF"/>
</svg>
