<svg width="85" height="85" viewBox="0 0 85 85" fill="none" xmlns="http://www.w3.org/2000/svg">
<rect width="84.6718" height="84.6718" rx="13.5475" fill="#D7ECEB"/>
<path d="M52.6377 65.231C53.4987 65.2328 54.3352 64.9447 55.0126 64.4131C55.6899 63.8816 56.1687 63.1375 56.3717 62.3008C56.9907 59.7184 58.0068 56.2615 58.73 51.1695C59.0425 49.0078 58.73 43.6583 58.73 43.6583V42.0959C58.73 40.7203 57.7297 39.5077 56.3717 39.376C56.008 39.3404 55.6408 39.3812 55.2938 39.496C54.9468 39.6107 54.6277 39.7967 54.3569 40.0422C54.0861 40.2876 53.8697 40.587 53.7215 40.9211C53.5733 41.2551 53.4967 41.6165 53.4965 41.982V39.661C53.4965 38.2853 52.4962 37.0708 51.1382 36.9411C50.7745 36.9054 50.4073 36.9463 50.0603 37.061C49.7134 37.1757 49.3942 37.3618 49.1234 37.6072C48.8526 37.8526 48.6362 38.152 48.488 38.4861C48.3398 38.8202 48.2632 39.1815 48.263 39.547V37.6289C48.263 36.2532 47.2627 35.0387 45.9047 34.909C45.5409 34.873 45.1737 34.9137 44.8265 35.0283C44.4794 35.1429 44.1601 35.3289 43.8893 35.5744C43.6184 35.8199 43.402 36.1194 43.2539 36.4536C43.1059 36.7879 43.0294 37.1494 43.0295 37.5149V28.4885C43.0295 26.9733 41.9192 25.6192 40.4098 25.4738C40.0065 25.4343 39.5993 25.4797 39.2145 25.607C38.8297 25.7343 38.4758 25.9407 38.1755 26.213C37.8753 26.4853 37.6354 26.8174 37.4712 27.188C37.307 27.5585 37.2222 27.9594 37.2222 28.3647V49.4912C37.1829 49.4303 37.1455 49.3713 37.1062 49.2947C35.4259 46.2387 34.6615 44.4975 34.6615 44.4975L34.0227 43.3065C33.388 42.0645 32.8279 41.5928 31.6035 41.5378C30.8449 41.4985 30.2416 41.7343 29.6383 42.3652C28.6753 43.3891 28.8522 44.24 29.0389 44.9967L29.1116 45.2443C29.1116 45.2443 31.4994 50.5053 34.7637 56.4207C35.8598 58.3699 36.7578 60.4241 37.4443 62.5523C37.6903 63.3303 38.178 64.0096 38.8363 64.4916C39.4947 64.9737 40.2896 65.2333 41.1055 65.2329L52.6377 65.231Z" stroke="#478889" stroke-width="2.5" stroke-linecap="round" stroke-linejoin="round"/>
<path d="M48.2649 39.5493V44.7042" stroke="#478889" stroke-width="2.5" stroke-linecap="round" stroke-linejoin="round"/>
<path d="M43.0298 37.5151V44.7041" stroke="#478889" stroke-width="2.5" stroke-linecap="round" stroke-linejoin="round"/>
<path d="M53.5017 41.9844V44.7043" stroke="#478889" stroke-width="2.5" stroke-linecap="round" stroke-linejoin="round"/>
<path d="M25 29.894H30.2728" stroke="#478889" stroke-width="2.5" stroke-linecap="round" stroke-linejoin="round"/>
<path d="M49.7742 29.894H55.0489" stroke="#478889" stroke-width="2.5" stroke-linecap="round" stroke-linejoin="round"/>
<path d="M46.9187 22.9996L50.6488 19.2695" stroke="#478889" stroke-width="2.5" stroke-linecap="round" stroke-linejoin="round"/>
<path d="M40.0239 20.1424V14.8696" stroke="#478889" stroke-width="2.5" stroke-linecap="round" stroke-linejoin="round"/>
<path d="M33.1305 22.9996L29.4004 19.2695" stroke="#478889" stroke-width="2.5" stroke-linecap="round" stroke-linejoin="round"/>
</svg>
