<svg width="98" height="77" viewBox="0 0 98 77" fill="none" xmlns="http://www.w3.org/2000/svg">
<g opacity="0.6">
<path d="M84.7797 40.1355C84.7807 44.9769 83.8369 49.771 82.0022 54.2441C80.1675 58.7171 77.4778 62.7814 74.0869 66.2048C70.696 69.6282 66.6703 72.3436 62.2396 74.1958C57.809 76.0481 53.0603 77.001 48.2649 77C28.0985 77 11.75 60.4949 11.75 40.1355C11.7465 36.1753 12.3754 32.2404 13.6123 28.4822C16.0407 21.1425 20.6931 14.7593 26.9116 10.2351C33.1301 5.71087 40.5999 3.27468 48.2649 3.271C54.8754 3.26868 61.3625 5.07873 67.0336 8.50792C72.7047 11.9371 77.347 16.8567 80.4649 22.7416C81.238 24.1935 81.9123 25.6968 82.4834 27.2411C82.5625 27.4561 82.6396 27.6712 82.7146 27.8883V27.8903C83.0494 28.8447 83.3442 29.8168 83.5991 30.8067C84.3855 33.8527 84.7823 36.9878 84.7797 40.1355Z" fill="#99BCDF"/>
<path d="M44.2684 15.2626C42.6274 14.3667 40.8055 13.861 38.9415 13.784C37.0775 13.707 35.2208 14.0608 33.5128 14.8184C32.009 15.4791 30.4255 16.6644 29.9238 18.8048C31.9528 17.5959 34.5793 19.5059 35.1014 22.57L34.9795 22.604C34.7037 24.7263 35.3193 27.0369 36.5111 28.3529C36.6676 26.986 37.5579 26.0557 38.4336 25.4745C39.3092 24.8934 40.2779 24.4712 40.9463 23.4723C41.7386 22.288 41.9399 20.5573 42.2546 18.9784C42.5694 17.3996 43.1666 15.7026 44.2684 15.2626Z" fill="white"/>
<path d="M32.9114 33.3229C32.3495 34.1749 31.5989 34.7094 30.9255 35.375C30.254 36.0427 29.615 36.9438 29.4811 38.101C29.3959 38.8423 29.5277 39.596 29.5095 40.3456C29.4912 41.0952 29.2437 41.939 28.7386 42.1253C27.9414 42.4161 27.3328 40.9211 26.5132 40.8166C25.862 40.7347 25.2758 41.769 25.4644 42.666C25.6531 43.5631 26.5396 43.9604 27.0488 43.3746C27.5093 44.1549 27.1847 45.5701 26.493 45.8097C26.4199 46.3013 26.3469 46.7908 26.2759 47.2823C24.5272 46.0473 22.7603 44.7919 21.2734 42.9835C19.6196 40.9892 18.5939 38.5416 18.3278 35.9546C18.1351 33.8759 18.4211 31.4981 17.4758 29.8986C16.7191 28.6186 15.4208 28.336 14.2523 28.4159C14.0394 28.4302 13.8243 28.4548 13.6113 28.4814C14.3004 26.3919 15.1756 24.3697 16.2262 22.4397C16.4639 22.3367 16.6848 22.1979 16.8814 22.028C17.9688 21.0962 18.4516 19.21 19.334 17.9054C19.3908 17.8214 19.4496 17.7395 19.5105 17.6596C20.4132 16.4697 21.6223 15.8573 22.7908 15.288C25.3772 14.0203 28.0387 12.7361 30.7693 12.9123L29.9923 12.988C29.0855 15.5522 28.1781 18.1163 27.2699 20.6804C27.132 21.0737 26.9927 21.4676 26.852 21.8622C26.3368 23.3203 25.8053 24.8728 25.8844 26.505C25.931 27.4717 26.2637 28.5039 26.8967 28.8357C27.487 29.1429 28.1321 28.7661 28.7021 28.3933C28.9435 28.2377 29.1829 28.082 29.4243 27.9243C30.2905 27.3611 31.25 26.7836 32.1649 27.1604C33.0027 27.5045 33.6214 28.6534 33.7391 29.8925C33.847 31.0969 33.5559 32.3035 32.9114 33.3229Z" fill="white"/>
<path d="M38.0643 50.8302C35.5344 49.2576 33.0046 47.685 30.4747 46.1124L30.5176 46.0008C28.9447 46.6056 28.2916 49.4284 28.5516 51.7368C28.8115 54.0453 29.693 56.1089 30.1383 58.3582C30.7387 61.4362 30.5121 64.6205 29.4819 67.5802C32.8086 63.8118 35.7526 59.7162 38.2699 55.3548C38.6215 54.8051 38.8895 54.2053 39.0648 53.5753C39.2255 52.9051 39.2008 52.0993 38.8789 51.5619C38.6719 51.2534 38.3919 51.0019 38.0643 50.8302Z" fill="white"/>
<path d="M28.0764 22.2192C27.8077 22.829 27.7044 23.6421 27.9482 24.273C28.1971 24.9174 28.7235 25.2086 29.208 25.451L30.6059 26.1506C31.0709 26.3833 31.5722 26.6183 32.0463 26.4269C32.6181 26.1959 33.0145 25.2909 32.912 24.4507C32.8028 23.5567 32.2446 22.9417 31.7283 22.418C31.0059 21.6851 30.2834 20.9522 29.561 20.2193L29.1538 20.7228C28.7134 21.1565 28.3491 21.6624 28.0764 22.2192Z" fill="white"/>
<path d="M77.2848 31.7781C77.9137 31.9276 78.5426 32.0771 79.1715 32.2266C79.0619 34.3709 78.0091 36.3555 76.5972 37.0743C76.0089 37.3733 75.3536 37.4839 74.8668 38.043C74.4266 38.5509 74.2034 39.3414 73.9985 40.0972C73.6395 41.4161 73.2804 42.735 72.9213 44.0539C72.5359 45.4753 72.0409 47.0543 71.0388 47.5663C70.1787 48.0067 69.1948 47.468 68.5335 46.5648C67.8721 45.6617 67.4685 44.4472 67.0769 43.2634C67.1013 44.5537 66.5069 45.8194 65.665 46.2679C64.8211 46.7164 63.7946 46.3109 63.2307 45.3094C62.825 44.5906 62.6566 43.6423 62.259 42.9132C61.8614 42.1841 61.0276 41.7663 60.5935 42.4504C60.3075 42.905 60.344 43.6013 60.202 44.1789C59.9809 45.0759 59.3115 45.6391 58.6481 45.6883C57.9868 45.7375 57.3417 45.3524 56.7879 44.8302C55.6458 43.7488 54.8039 42.0326 54.4773 40.1258C54.3333 39.2759 54.2927 38.3502 54.5422 37.5535C54.7917 36.7569 55.3942 36.1424 55.9926 36.294C56.3862 35.4543 55.6092 34.3402 54.9094 34.4385C54.2075 34.5368 53.6577 35.2966 53.0816 35.8803C52.5075 36.464 51.7042 36.8879 51.126 36.3083C51.1301 36.8469 50.696 37.2033 50.3207 37.1583C49.9474 37.1153 49.6147 36.8121 49.2719 36.5971C47.9472 35.7635 46.2655 36.3165 45.3242 37.8935C45.9125 35.3662 46.7747 32.4662 48.5821 31.8723C49.3206 31.6286 50.1259 31.8293 50.8238 31.4074C52.0592 30.6599 52.3087 27.8356 51.2417 26.6703C51.3776 27.7721 51.3512 29.0583 50.7751 29.812C50.199 30.5657 48.9899 30.0741 49.0629 28.96C48.8966 29.728 48.0689 29.8447 47.6875 29.2549C47.3041 28.6651 47.3366 27.7005 47.6084 26.9959C47.8802 26.2914 48.3428 25.7855 48.7911 25.3002C49.7547 24.2577 50.7325 23.203 51.8482 22.5476C52.966 21.8922 54.2562 21.6711 55.3759 22.3223C55.9663 22.6664 56.4856 23.2399 57.0881 23.543C57.6906 23.8481 58.4554 23.8092 58.855 23.0965C59.3033 22.3018 59.0923 21.1222 59.2587 20.1289C59.5569 18.3737 61.2954 17.5525 62.259 18.7116C61.5388 18.5253 60.7943 19.3854 60.7051 20.4279C60.6138 21.4703 61.1352 22.523 61.833 22.8384C63.0055 23.3627 64.1537 22.0438 65.0402 20.8232C65.9653 19.5452 66.8916 18.2679 67.8194 16.9913C67.9675 16.774 68.1338 16.5698 68.3164 16.381C68.607 16.0951 68.9943 15.9313 69.4 15.923C69.8057 15.9146 70.1993 16.0622 70.5012 16.336C71.4384 17.108 71.8786 18.6912 72.6475 19.7807C73.7632 21.3639 75.4328 21.7489 76.9867 22.0561C78.145 22.2834 79.304 22.5121 80.4637 22.7422C81.2368 24.1941 81.9111 25.6974 82.4822 27.2417C80.5184 28.0834 78.7069 29.6584 77.2848 31.7781Z" fill="white"/>
<path d="M81.0306 56.42C80.1615 58.2016 79.1506 59.9091 78.008 61.5257C77.2777 61.2103 76.4926 61.7735 75.809 62.3019C75.0949 62.8548 74.2368 63.3935 73.5045 62.8897C72.7559 62.3736 72.5145 60.9297 72.7519 59.7849C72.9892 58.6421 73.5816 57.7327 74.1557 56.8685C74.7642 55.9509 75.4154 54.9986 76.2614 54.6423C77.1093 54.2859 78.1987 54.7897 78.4462 56.0062L79.0466 55.9857C78.7099 55.5188 78.8864 54.5521 79.3388 54.3821C79.8601 54.1835 80.3125 54.9064 80.6208 55.5454C80.7588 55.8342 80.8987 56.125 81.0306 56.42Z" fill="white"/>
<path d="M58.0317 47.7699C56.741 47.8518 55.7187 46.2477 55.0393 44.6697C54.36 43.0916 53.7401 41.287 52.5755 40.4837C51.9101 40.0248 51.1515 39.9618 50.4297 39.7394C49.7079 39.517 48.9525 39.0568 48.6074 38.1196L47.7887 37.7857C46.7074 38.3995 45.6119 39.0245 44.6802 40.0233C43.6353 41.144 42.9844 42.5805 42.828 44.1115C42.6716 45.7659 43.2491 47.6107 44.3283 48.2323C45.1809 48.7233 46.1737 48.4138 47.0374 48.8634C48.1165 49.4251 48.7572 51.0568 48.9997 52.6679C49.2422 54.2789 49.1807 55.9532 49.3542 57.5826C49.5277 59.2119 50.0059 60.9073 50.9956 61.7423C52.234 62.7872 54.0511 61.919 54.6067 60.0169C54.8793 59.0839 54.8699 58.0312 55.0737 57.0627C55.4327 55.3571 56.4013 54.0918 57.1696 52.6927C57.9379 51.2937 58.5427 49.3935 58.0317 47.7699Z" fill="white"/>
<path d="M45.2806 31.0086C45.4009 31.1205 45.5132 31.2409 45.6167 31.3688C45.7237 31.5552 45.7783 31.7674 45.7747 31.9828C45.7711 32.1982 45.7093 32.4084 45.596 32.591C45.7515 32.582 45.9034 32.5406 46.0422 32.4694C46.1811 32.3982 46.3037 32.2987 46.4025 32.1771C46.6381 31.9063 46.8453 31.6116 47.0209 31.2977C47.1525 31.081 47.2925 30.788 47.2032 30.5306C47.1422 30.355 46.9981 30.28 46.897 30.1479C46.7368 29.9385 46.6971 29.6059 46.6141 29.3185C46.435 28.6977 46.006 28.2412 45.5403 28.176L45.605 28.1885C45.4105 28.2557 45.2746 28.5676 45.3176 28.8483C45.3568 29.1038 45.5195 29.316 45.5033 29.5767C45.48 29.9515 45.109 30.1274 45.0861 30.5022C45.0825 30.6903 45.1523 30.8722 45.2806 31.0086Z" fill="white"/>
<path d="M43.0664 24.6403C43.0683 24.6398 43.0703 24.6397 43.0722 24.6392C43.1123 24.6026 43.1495 24.5631 43.1834 24.5208L43.0664 24.6403Z" fill="#E6E6E6"/>
<path d="M43.4581 26.4C43.7435 26.2147 43.9029 25.7024 43.8085 25.2735C43.7147 24.8473 43.3829 24.5608 43.0768 24.6395C42.988 24.7304 42.8778 24.797 42.7565 24.833C42.6352 24.8691 42.5068 24.8734 42.3834 24.8456C42.1941 24.7964 41.9864 24.6698 41.8223 24.8137C41.7284 24.9212 41.6627 25.0507 41.6311 25.1905C41.5704 25.3788 41.5096 25.567 41.4489 25.7553C41.42 25.8227 41.4125 25.8974 41.4273 25.9693C41.439 25.9981 41.4578 26.0234 41.4819 26.0427C41.506 26.0621 41.5346 26.0749 41.5651 26.0798C41.9296 26.1883 42.294 26.2968 42.6585 26.4053C42.9241 26.4843 43.2109 26.5605 43.4581 26.4Z" fill="white"/>
<path d="M70.9707 50.6888C70.8022 50.4104 70.6338 50.1319 70.4653 49.8534C70.2998 49.5309 70.0735 49.2441 69.7992 49.0091C69.7389 48.958 69.6691 48.9197 69.5939 48.8964C69.5187 48.873 69.4396 48.865 69.3614 48.8729C69.2831 48.8808 69.2072 48.9045 69.1381 48.9425C69.069 48.9804 69.0081 49.032 68.959 49.094L68.9795 49.2531C69.3635 49.7395 69.7699 50.2799 69.8673 51.0019C69.9057 51.2865 69.8923 51.581 69.926 51.8669C69.9597 52.1527 70.0554 52.4491 70.2382 52.5724C70.5035 52.7513 70.815 52.4875 71.0038 52.1656C71.1726 51.9011 71.2483 51.5871 71.2188 51.2739C71.1767 51.0638 71.0923 50.8646 70.9707 50.6888Z" fill="white"/>
<path d="M78.4699 40.0527C78.5187 39.7301 78.5674 39.4075 78.6161 39.0849C78.6952 38.7306 78.7051 38.364 78.6451 38.0059C78.6315 37.9277 78.6025 37.853 78.5599 37.7862C78.5173 37.7194 78.4619 37.662 78.397 37.6171C78.332 37.5723 78.2589 37.541 78.1818 37.5251C78.1047 37.5093 78.0252 37.5091 77.9481 37.5247L77.8623 37.6597C77.8459 38.2815 77.812 38.9591 77.4261 39.5748C77.2739 39.8175 77.0758 40.0341 76.9192 40.2747C76.7627 40.5153 76.6469 40.8043 76.7081 41.0174C76.7969 41.3268 77.2035 41.3275 77.5533 41.204C77.8511 41.1114 78.1094 40.9203 78.2865 40.6616C78.3884 40.4734 78.4508 40.2662 78.4699 40.0527Z" fill="#E6E6E6"/>
<path d="M73.6135 51.0509C73.6959 50.8119 73.577 50.5376 73.5518 50.2734C73.5398 49.9321 73.6294 49.595 73.8091 49.3057C73.9876 49.0328 74.1229 48.7334 74.21 48.4185C74.2467 48.2749 74.24 48.1236 74.1908 47.9839C74.135 47.8574 73.9999 47.7998 73.9224 47.8999L74.0882 48.0077C73.8643 47.9674 73.6343 47.9786 73.4153 48.0406C73.2904 48.0889 73.1788 48.1669 73.09 48.2679C73.0013 48.3689 72.9379 48.4901 72.9053 48.621C72.8779 48.8253 72.8332 49.0267 72.7716 49.2232C72.6727 49.4285 72.4812 49.4968 72.3609 49.6769C72.2788 49.8366 72.2374 50.0144 72.2404 50.1943C72.2433 50.3742 72.2906 50.5505 72.3778 50.7074C72.5289 50.964 72.7691 51.1547 73.0517 51.2425C73.2542 51.3158 73.5209 51.3197 73.6135 51.0509Z" fill="white"/>
<path d="M78.322 52.4859C78.3952 52.6782 78.4933 52.8599 78.6136 53.0263C78.839 53.2555 79.1452 53.1146 79.4186 53.0589C79.6667 53.0194 79.9207 53.0484 80.1538 53.1427C80.3869 53.2371 80.5903 53.3934 80.7426 53.5951C80.6365 53.0613 80.4052 52.561 80.0679 52.1362C79.7307 51.7114 79.2973 51.3745 78.8044 51.1538C78.1599 50.8886 77.4812 50.863 76.8111 50.8391L76.6953 50.8691C76.9903 51.736 77.9165 51.7166 78.322 52.4859Z" fill="white"/>
<path d="M58.3848 54.2584L58.3865 54.2622C58.398 54.2401 58.4095 54.218 58.4209 54.1959L58.3848 54.2584Z" fill="#E6E6E6"/>
<path d="M57.6716 55.6533C57.5159 55.9387 57.382 56.2357 57.271 56.5417C57.1241 57.0373 57.0268 57.5466 56.9807 58.0618C56.9444 58.3548 56.9332 58.729 57.115 58.8717C57.1672 58.9067 57.2303 58.9213 57.2924 58.9128C57.3544 58.9043 57.4113 58.8733 57.4524 58.8255C57.5534 58.7176 57.636 58.5936 57.697 58.4585C58.0543 57.8372 58.3317 57.1724 58.5226 56.4802C58.6966 55.7512 58.695 54.8929 58.3874 54.2617C58.1488 54.7256 57.9102 55.1894 57.6716 55.6533Z" fill="white"/>
<path d="M50.7846 18.4777C50.898 18.5897 51.0414 18.6656 51.197 18.6963C51.3527 18.727 51.5139 18.711 51.6607 18.6504C51.9646 18.5162 52.2435 18.3302 52.485 18.1006C52.685 17.9512 52.8547 17.7644 52.9847 17.5503C53.0564 17.4223 53.1023 17.2813 53.1198 17.1354C53.1374 16.9895 53.1262 16.8415 53.087 16.7C52.9741 16.3666 52.6876 16.2549 52.4349 16.1793C52.0303 16.0581 51.6258 15.937 51.2212 15.8159L51.5138 15.5496C51.2127 15.3865 50.8796 15.6892 50.6914 16.0641C50.5707 16.3089 50.4866 16.5703 50.4418 16.84C50.341 17.4284 50.4395 18.129 50.7846 18.4777Z" fill="#E6E6E6"/>
<path d="M57.9259 16.0562C58.0399 16.1832 58.1975 16.2615 58.3667 16.2754C58.5359 16.2893 58.7039 16.2377 58.8368 16.1311C58.9511 16.0444 59.0461 15.9343 59.1155 15.8081C59.1849 15.6819 59.2272 15.5423 59.2397 15.3985C59.2683 15.0772 59.111 14.7201 58.8862 14.6924L58.9377 14.3915C58.5048 14.3126 57.972 14.2968 57.74 14.8276C57.6618 15.0309 57.6378 15.2513 57.6704 15.467C57.703 15.6826 57.7911 15.8858 57.9259 16.0562Z" fill="#E6E6E6"/>
<path d="M56.9725 0.0613023C54.4345 -0.22772 51.8868 0.512942 49.8898 2.12034C47.8928 3.72775 46.61 6.07022 46.3238 8.63246C45.7276 13.968 48.5119 25.5544 53.5882 30.3506C55.9784 21.1614 64.3541 15.7108 65.4623 10.812C66.6465 5.57735 62.2574 0.66316 56.9725 0.0613023Z" fill="#BA71AE"/>
<path d="M55.2168 11.9223C56.9514 11.9223 58.3575 10.5028 58.3575 8.75163C58.3575 7.00048 56.9514 5.5809 55.2168 5.5809C53.4823 5.5809 52.0762 7.00048 52.0762 8.75163C52.0762 10.5028 53.4823 11.9223 55.2168 11.9223Z" fill="white"/>
<path d="M51.9145 34.9225C53.0506 34.9225 53.9715 33.9927 53.9715 32.8458C53.9715 31.6988 53.0506 30.769 51.9145 30.769C50.7784 30.769 49.8574 31.6988 49.8574 32.8458C49.8574 33.9927 50.7784 34.9225 51.9145 34.9225Z" fill="#BA71AE"/>
<path opacity="0.2" d="M57.8133 6.48156C58.1668 6.69602 58.475 6.97868 58.7203 7.31339C58.9657 7.64811 59.1433 8.02832 59.243 8.43234C59.3428 8.83635 59.3628 9.25624 59.3018 9.66804C59.2408 10.0798 59.1001 10.4755 58.8877 10.8324C58.6753 11.1893 58.3953 11.5005 58.0638 11.7481C57.7322 11.9958 57.3556 12.1751 56.9554 12.2758C56.1472 12.4792 55.2921 12.3502 54.5781 11.9171C55.3061 12.0805 56.0679 11.9772 56.7272 11.6254C57.3865 11.2736 57.9004 10.6964 58.1767 9.99715C58.453 9.29786 58.4738 8.52212 58.2353 7.80877C57.9969 7.09541 57.5148 6.49102 56.8753 6.10376C57.2061 6.17778 57.5229 6.30536 57.8133 6.48156Z" fill="#231F20"/>
<path opacity="0.2" d="M65.4741 10.8224C64.3659 15.7212 55.9902 21.1718 53.6 30.361C53.1226 29.9056 52.6792 29.4152 52.2734 28.8938C54.9593 20.2561 62.8137 15.0076 63.8845 10.2744C64.8428 6.03811 62.1508 2.01209 58.2879 0.311371C62.9639 1.49807 66.5593 6.02533 65.4741 10.8224Z" fill="#231F20"/>
<path d="M27.541 12.4333C25.6351 12.2163 23.7218 12.7725 22.2221 13.9796C20.7225 15.1867 19.7591 16.9458 19.5442 18.8699C19.0965 22.8768 21.1874 31.5777 24.9995 35.1796C26.7945 28.2787 33.0843 24.1856 33.9166 20.5067C34.8059 16.5757 31.5098 12.8853 27.541 12.4333Z" fill="#BA71AE"/>
<path d="M26.2218 21.3416C27.5244 21.3416 28.5803 20.2756 28.5803 18.9605C28.5803 17.6455 27.5244 16.5794 26.2218 16.5794C24.9192 16.5794 23.8633 17.6455 23.8633 18.9605C23.8633 20.2756 24.9192 21.3416 26.2218 21.3416Z" fill="white"/>
<path d="M23.742 38.6126C24.5952 38.6126 25.2868 37.9143 25.2868 37.053C25.2868 36.1917 24.5952 35.4934 23.742 35.4934C22.8889 35.4934 22.1973 36.1917 22.1973 37.053C22.1973 37.9143 22.8889 38.6126 23.742 38.6126Z" fill="#BA71AE"/>
<path opacity="0.2" d="M28.1756 17.2532C28.4411 17.4143 28.6725 17.6265 28.8568 17.8779C29.041 18.1292 29.1744 18.4148 29.2493 18.7182C29.3242 19.0216 29.3392 19.3369 29.2934 19.6461C29.2476 19.9554 29.1419 20.2525 28.9824 20.5205C28.8229 20.7885 28.6127 21.0222 28.3637 21.2082C28.1147 21.3942 27.8319 21.5288 27.5314 21.6045C27.2308 21.6801 26.9185 21.6953 26.6122 21.649C26.3059 21.6028 26.0116 21.4961 25.7461 21.3351C26.2928 21.4578 26.8648 21.3802 27.36 21.116C27.8551 20.8519 28.241 20.4184 28.4485 19.8933C28.656 19.3681 28.6716 18.7856 28.4925 18.2499C28.3135 17.7142 27.9514 17.2603 27.4711 16.9695C27.7196 17.0251 27.9575 17.1209 28.1756 17.2532Z" fill="#231F20"/>
<path opacity="0.2" d="M33.925 20.5133C33.0927 24.1922 26.8029 28.2854 25.0079 35.1862C24.6494 34.8442 24.3164 34.4759 24.0117 34.0843C26.0287 27.5977 31.9271 23.6563 32.7312 20.1018C33.4509 16.9205 31.4293 13.8971 28.5284 12.6199C32.0399 13.5111 34.7399 16.9109 33.925 20.5133Z" fill="#231F20"/>
<path d="M86.2698 11.0028C85.5899 10.7304 84.8634 10.5957 84.132 10.6067C83.4005 10.6176 82.6783 10.7739 82.0067 11.0667C81.3351 11.3594 80.7271 11.7828 80.2175 12.3127C79.708 12.8426 79.3068 13.4687 79.0369 14.1551C77.9018 17.042 77.7137 23.9362 79.826 27.3915C82.542 22.6284 88.0369 20.8697 89.3922 18.305C90.8403 15.5646 89.1293 12.1488 86.2698 11.0028Z" fill="#BA71AE"/>
<path d="M83.9847 17.4185C84.9881 17.4185 85.8015 16.5973 85.8015 15.5844C85.8015 14.5714 84.9881 13.7502 83.9847 13.7502C82.9814 13.7502 82.168 14.5714 82.168 15.5844C82.168 16.5973 82.9814 17.4185 83.9847 17.4185Z" fill="white"/>
<path d="M78.5161 29.7292C79.1733 29.7292 79.7061 29.1913 79.7061 28.5278C79.7061 27.8643 79.1733 27.3265 78.5161 27.3265C77.8589 27.3265 77.3262 27.8643 77.3262 28.5278C77.3262 29.1913 77.8589 29.7292 78.5161 29.7292Z" fill="#BA71AE"/>
<path opacity="0.2" d="M85.7756 14.7146C86.1084 15.0659 86.2895 15.5363 86.279 16.0223C86.2685 16.5083 86.0674 16.9702 85.7198 17.3066C85.3721 17.643 84.9064 17.8262 84.425 17.8162C83.9436 17.8061 83.4859 17.6035 83.1523 17.2529C83.5341 17.4557 83.9749 17.5147 84.3958 17.4194C84.8167 17.3241 85.1903 17.0807 85.4497 16.7327C85.7091 16.3847 85.8374 15.9549 85.8115 15.5202C85.7857 15.0854 85.6075 14.6742 85.3087 14.36C85.4823 14.452 85.6399 14.5718 85.7756 14.7146Z" fill="#231F20"/>
<path opacity="0.2" d="M89.3965 18.3125C88.0413 20.8772 82.5464 22.6359 79.8304 27.399C79.6324 27.0716 79.4586 26.7299 79.3105 26.3766C82.1087 21.9668 87.2821 20.2409 88.5916 17.763C89.7636 15.5452 88.8663 12.8853 86.9658 11.3439C89.3975 12.723 90.7236 15.8012 89.3965 18.3125Z" fill="#231F20"/>
<path d="M86.3586 67.9115C84.8227 67.9115 83.1393 67.8166 81.3084 67.6268C71.8383 66.6434 59.5717 63.2244 46.7682 57.9999C33.9646 52.7755 22.1538 46.3693 13.5114 39.962C9.30148 36.8407 6.07036 33.8861 3.90795 31.1803C1.61851 28.3157 0.617074 25.8187 0.931349 23.7591C1.5437 19.7465 6.96581 18.8686 11.4066 18.8388L11.4081 19.4223C5.30974 19.4633 1.71202 21.0537 1.27763 23.9004C0.724294 27.5261 5.23708 33.1865 13.6588 39.4305C22.2821 45.8237 34.0713 52.2176 46.8546 57.4339C59.6378 62.65 71.8818 66.0631 81.3311 67.0444C90.559 68.0029 96.1693 66.473 96.7225 62.8472C97.1819 59.8368 94.1534 55.4021 88.1951 50.3598L88.3591 49.8416C92.6885 53.5055 97.714 58.7603 97.0688 62.9885C96.7545 65.0482 95.1531 66.4829 92.309 67.2528C90.6878 67.6915 88.6965 67.9115 86.3586 67.9115Z" fill="#BA71AE"/>
</g>
</svg>
