<svg width="15" height="13" viewBox="0 0 15 13" fill="none" xmlns="http://www.w3.org/2000/svg">
<g clip-path="url(#clip0_2678_34157)">
<path d="M12.5071 4.27126C13.0377 5.76732 12.9847 7.41068 12.3586 8.86878C11.7347 10.3049 10.6126 11.4624 9.20251 12.1245C7.80966 12.7859 6.23637 12.9554 4.73627 12.6056C3.20144 12.2661 1.85847 11.3367 0.992781 10.015C0.127092 8.69327 -0.193074 7.08341 0.100301 5.52755C0.370599 4.01036 1.16325 2.63789 2.33872 1.65172C2.91553 1.16745 3.56325 0.776134 4.25888 0.491648C4.96421 0.199836 5.71437 0.0334066 6.47608 -0.000204485C7.25155 -0.0270835 8.02516 0.0926074 8.75693 0.352648C9.49643 0.617528 10.1827 1.01408 10.7832 1.52342C11.0915 1.77906 11.3138 2.12449 11.4197 2.51241C11.463 2.63699 11.4715 2.77114 11.4444 2.90027C11.4173 3.02941 11.3555 3.14858 11.2659 3.24481C10.8999 3.5228 10.3111 3.24483 9.8231 2.83319L9.7011 2.71556C8.82543 1.84771 7.67809 1.31298 6.45486 1.20264C5.82495 1.13498 5.18796 1.19683 4.58244 1.38442C3.96571 1.57504 3.39371 1.88964 2.90098 2.30926C1.89827 3.15378 1.25942 4.3572 1.11872 5.66655C0.976962 6.95543 1.28452 8.25386 1.98864 9.33923C2.68737 10.4399 3.7514 11.2546 4.99088 11.638C5.61477 11.8305 6.27042 11.8961 6.91968 11.8309C7.56895 11.7658 8.19887 11.5711 8.77284 11.2584C9.8889 10.619 10.737 9.5933 11.1598 8.37161C11.3703 7.78583 11.4728 7.16621 11.4621 6.54329C11.4514 5.93016 11.3329 5.32378 11.112 4.75237C10.8999 4.17501 10.8681 3.56558 11.1916 3.29828C11.5152 3.03099 12.1411 3.36243 12.454 4.1269V4.15898L12.5071 4.27126Z" fill="#003764"/>
<path d="M4.22249 5.51729C4.64153 5.94497 5.03404 6.3887 5.42656 6.84311L5.713 7.18523L5.85621 7.36166L5.91987 7.44186C5.93556 7.47674 5.95326 7.51066 5.9729 7.54343L6.00473 7.60223C6.00473 7.60223 6.00473 7.645 6.04186 7.60223L6.12143 7.52203L6.23812 7.37771C6.42377 7.14249 6.60412 6.90189 6.76855 6.65063C7.11181 6.14872 7.48748 5.67012 7.89308 5.21792C8.71525 4.33048 9.73367 3.61414 10.6195 2.82828C10.8476 2.63048 11.0598 2.41662 11.2719 2.20278C11.4841 1.98894 11.6751 1.74839 11.8819 1.52386C12.0888 1.29933 12.2903 1.0748 12.5025 0.855618L13.155 0.219446C13.2303 0.165152 13.3158 0.126696 13.4062 0.106418C13.4966 0.0861397 13.5902 0.0844611 13.6813 0.101426C13.7724 0.118391 13.8591 0.153679 13.9364 0.205187C14.0136 0.256694 14.0798 0.323339 14.1309 0.40119C14.2677 0.533011 14.3519 0.710777 14.3675 0.900874C14.3832 1.09097 14.3292 1.28023 14.2158 1.43296L14.1469 1.48109C13.6589 1.80719 13.1603 2.12259 12.6511 2.438C12.3964 2.58769 12.1206 2.74273 11.8978 2.9138C11.6572 3.07738 11.4269 3.25593 11.2083 3.4484C10.3118 4.22891 9.57985 5.1698 8.76829 6.01981C8.36516 6.45284 7.9196 6.84846 7.51117 7.27613C7.30072 7.48547 7.10236 7.70679 6.91707 7.93903C6.69429 8.21167 6.38666 8.59125 6.15327 8.94943C6.12144 8.98685 6.08961 9.07771 6.05248 9.06167L5.94108 8.9601L5.70769 8.7516L5.20908 8.30255L5.07647 8.18492L4.981 8.10475L4.81126 7.9604L4.46648 7.67173L3.79815 7.07299L3.16162 6.53304C3.10936 6.46635 3.07064 6.38993 3.04768 6.30816C3.02472 6.22639 3.01798 6.14085 3.02783 6.05645C3.03769 5.97206 3.06394 5.89047 3.1051 5.8163C3.14626 5.74214 3.20152 5.67685 3.26772 5.62422C3.37627 5.48889 3.53092 5.39913 3.70154 5.37245C3.87216 5.34576 4.04653 5.38405 4.19066 5.47986L4.22249 5.51729Z" fill="#003764"/>
</g>
<defs>
<clipPath id="clip0_2678_34157">
<rect width="14.38" height="12.7822" fill="white"/>
</clipPath>
</defs>
</svg>
