<svg width="120" height="22" viewBox="0 0 120 22" fill="none" xmlns="http://www.w3.org/2000/svg">
<path d="M20.067 1.23242V11.2872C20.067 16.7335 15.6513 21.0627 10.096 21.0627C4.54072 21.0627 0.125 16.7335 0.125 11.2872V1.23242H3.54362V11.2872C3.54362 14.7784 6.53492 17.7111 10.096 17.7111C13.6571 17.7111 16.6484 14.7784 16.6484 11.2872V1.23242H20.067ZM26.7618 20.7834V10.7286C26.7618 7.23736 29.7531 4.30472 33.3141 4.30472C36.8752 4.30472 39.8665 7.23736 39.8665 10.7286V20.7834H43.2851V10.7286C43.2851 5.28227 38.8694 0.953125 33.3141 0.953125C27.7589 0.953125 23.3432 5.28227 23.3432 10.7286V20.7834H26.7618ZM63.2271 1.23242C57.6718 1.23242 53.2561 5.56156 53.2561 11.0079C53.2561 16.4542 57.6718 20.7834 63.2271 20.7834H69.9219V17.4318H63.2271C59.666 17.4318 56.6748 14.4991 56.6748 11.0079C56.6748 7.51666 59.666 4.58402 63.2271 4.58402H69.9219V1.23242H63.2271ZM50.1224 20.7834V1.23242H46.7038V20.7834H50.1224ZM76.9016 20.7834V1.23242H73.483V20.7834H76.9016ZM116.358 1.23242V3.04787C116.358 6.53911 113.367 9.47176 109.806 9.47176C106.245 9.47176 103.254 6.53911 103.254 3.04787V1.23242H99.8349V3.04787C99.8349 7.79596 103.396 11.8458 108.097 12.6837V20.7834H111.515V12.6837C116.216 11.9855 119.777 7.93561 119.777 3.18752V1.23242H116.358ZM80.0353 1.23242V4.58402H86.7302V20.7834H90.1488V4.72367H96.986V1.23242H80.0353ZM118.21 19.8058C118.21 19.6662 118.352 19.6662 118.352 19.5265C118.495 19.3869 118.495 19.3869 118.637 19.3869C118.78 19.3869 118.78 19.3869 118.922 19.3869C119.065 19.3869 119.207 19.3869 119.207 19.3869C119.35 19.3869 119.35 19.5265 119.492 19.5265C119.634 19.6662 119.634 19.6662 119.634 19.8058C119.634 19.9455 119.634 19.9455 119.634 20.0851C119.634 20.2248 119.634 20.3644 119.634 20.3644C119.634 20.5041 119.492 20.5041 119.492 20.6437C119.35 20.7834 119.35 20.7834 119.207 20.7834C119.065 20.7834 119.065 20.7834 118.922 20.7834C118.78 20.7834 118.637 20.7834 118.637 20.7834C118.495 20.7834 118.495 20.6437 118.352 20.6437C118.352 20.5041 118.352 20.5041 118.21 20.3644C118.21 20.2248 118.21 20.2248 118.21 20.0851C118.21 19.9455 118.21 19.8058 118.21 19.8058ZM118.352 20.3644C118.352 20.5041 118.495 20.5041 118.495 20.6437C118.495 20.6437 118.637 20.7834 118.78 20.7834C118.922 20.7834 118.922 20.7834 119.065 20.7834C119.207 20.7834 119.207 20.7834 119.35 20.7834C119.492 20.7834 119.492 20.6437 119.634 20.6437C119.634 20.6437 119.777 20.5041 119.777 20.3644C119.777 20.2248 119.777 20.2248 119.777 20.0851C119.777 19.9455 119.777 19.9455 119.777 19.8058C119.777 19.6662 119.634 19.6662 119.634 19.5265C119.634 19.5265 119.492 19.3869 119.35 19.3869C119.207 19.3869 119.207 19.3869 119.065 19.3869C118.922 19.3869 118.922 19.3869 118.78 19.3869C118.637 19.3869 118.637 19.5265 118.495 19.5265C118.495 19.5265 118.352 19.6662 118.352 19.8058C118.352 19.9455 118.352 19.9455 118.352 20.0851C118.21 20.2248 118.21 20.2248 118.352 20.3644ZM119.065 19.6662C119.207 19.6662 119.207 19.6662 119.35 19.6662L119.492 19.8058V19.9455C119.492 19.9455 119.492 19.9455 119.492 20.0851C119.492 20.0851 119.492 20.0851 119.35 20.0851C119.35 20.0851 119.35 20.0851 119.207 20.0851L119.492 20.5041L119.207 20.0851H119.065V20.5041V19.6662ZM119.065 20.0851C119.065 20.0851 119.207 20.0851 119.065 20.0851C119.207 20.0851 119.207 20.0851 119.207 19.9455C119.207 19.9455 119.207 19.9455 119.207 19.8058V19.6662C119.207 19.6662 119.207 19.6662 119.065 19.6662C119.065 19.6662 119.065 19.6662 118.922 19.6662H118.637V20.0851H119.065Z" fill="#153862"/>
</svg>
