<svg width="24" height="24" viewBox="0 0 24 24" fill="none" xmlns="http://www.w3.org/2000/svg">
<path d="M20.0488 13.2C19.3686 13.2876 18.6844 13.341 17.9988 13.3599C17.3188 13.3599 16.6388 13.3599 15.9988 13.3599C15.3588 13.3599 14.6388 13.3599 13.9988 13.2999C13.3588 13.2399 12.6388 13.2 11.9988 13.14C11.3588 13.08 10.6388 13.0099 9.99883 12.9799L8.99883 12.9199H7.99883H6.99883H5.99883C5.31883 12.9199 4.63883 12.9199 3.99883 12.9199C3.60883 12.9199 3.29883 12.35 3.30883 11.59C3.31883 10.83 3.62881 10.1999 4.00881 10.1899H4.09881C4.77881 10.3299 5.44881 10.44 6.09881 10.52L7.09881 10.64L8.09881 10.7399L9.09881 10.8199L10.0988 10.8799C10.7788 10.9299 11.4588 10.94 12.0988 10.97H14.0988C14.7788 10.97 15.4588 10.97 16.0988 10.97C16.7388 10.97 17.4588 10.97 18.0988 10.9C18.7388 10.83 19.4588 10.8299 20.0988 10.7599C20.4388 10.7599 20.7188 11.24 20.7188 11.9C20.7188 12.56 20.4588 13.1299 20.1188 13.1699L20.0488 13.2Z" fill="#173962"/>
</svg>
