<svg width="85" height="85" viewBox="0 0 85 85" fill="none" xmlns="http://www.w3.org/2000/svg">
<rect width="84.6718" height="84.6718" rx="13.5475" fill="#F1E6F1"/>
<path d="M60.5763 48.2168V58.2885L43.1571 66.9949L24.6521 58.2885V48.3184" stroke="#BA71AE" stroke-width="2.5" stroke-linecap="round" stroke-linejoin="round"/>
<path d="M24.6521 38.6914L43.1571 46.3119L60.5763 38.6914" stroke="#BA71AE" stroke-width="2.5" stroke-linecap="round" stroke-linejoin="round"/>
<path d="M43.1572 46.3115V66.9948" stroke="#BA71AE" stroke-width="2.5" stroke-linecap="round" stroke-linejoin="round"/>
<path d="M43.1573 46.3119L37.715 54.4785L19.21 45.7658L24.6522 38.6914" stroke="#BA71AE" stroke-width="2.5" stroke-linecap="round" stroke-linejoin="round"/>
<path d="M52.5242 36.0303L60.5765 38.6911" stroke="#BA71AE" stroke-width="2.5" stroke-linecap="round" stroke-linejoin="round"/>
<path d="M24.6521 38.6911L32.7616 36.0303" stroke="#BA71AE" stroke-width="2.5" stroke-linecap="round" stroke-linejoin="round"/>
<path d="M60.5764 38.6914L65.4725 45.7658L49.1456 53.9323L43.1572 46.3119" stroke="#BA71AE" stroke-width="2.5" stroke-linecap="round" stroke-linejoin="round"/>
<path d="M55.9658 23.9705L56.6263 23.3101" stroke="#BA71AE" stroke-width="2.5" stroke-linecap="round" stroke-linejoin="round"/>
<path d="M59.5288 20.4085L60.1893 19.748" stroke="#BA71AE" stroke-width="2.5" stroke-linecap="round" stroke-linejoin="round"/>
<path d="M60.1893 23.9705L59.5288 23.3101" stroke="#BA71AE" stroke-width="2.5" stroke-linecap="round" stroke-linejoin="round"/>
<path d="M56.6263 20.4085L55.9658 19.748" stroke="#BA71AE" stroke-width="2.5" stroke-linecap="round" stroke-linejoin="round"/>
<path d="M33.0918 16.1919L32.4314 16.8523" stroke="#BA71AE" stroke-width="2.5" stroke-linecap="round" stroke-linejoin="round"/>
<path d="M29.5293 19.7544L28.8689 20.4148" stroke="#BA71AE" stroke-width="2.5" stroke-linecap="round" stroke-linejoin="round"/>
<path d="M28.8689 16.1919L29.5293 16.8523" stroke="#BA71AE" stroke-width="2.5" stroke-linecap="round" stroke-linejoin="round"/>
<path d="M32.4314 19.7544L33.0918 20.4148" stroke="#BA71AE" stroke-width="2.5" stroke-linecap="round" stroke-linejoin="round"/>
<path d="M26.2971 31.147L26.4817 31.3316" stroke="#BA71AE" stroke-width="2.5" stroke-linecap="round" stroke-linejoin="round"/>
<path d="M23.7063 28.5562L23.8845 28.7344" stroke="#BA71AE" stroke-width="2.5" stroke-linecap="round" stroke-linejoin="round"/>
<path d="M26.2971 28.7344L26.4817 28.5562" stroke="#BA71AE" stroke-width="2.5" stroke-linecap="round" stroke-linejoin="round"/>
<path d="M23.7063 31.3316L23.8845 31.147" stroke="#BA71AE" stroke-width="2.5" stroke-linecap="round" stroke-linejoin="round"/>
<path d="M43.6146 20.3323L45.8626 24.8855C45.9421 25.0526 46.0611 25.1978 46.2094 25.3085C46.3577 25.4192 46.5308 25.4919 46.7136 25.5205L51.7431 26.2508C51.9479 26.2829 52.1399 26.3708 52.2982 26.5047C52.4565 26.6386 52.5749 26.8134 52.6404 27.0101C52.706 27.2068 52.7162 27.4177 52.6699 27.6198C52.6237 27.8219 52.5227 28.0074 52.3781 28.1559L48.7393 31.7058C48.6075 31.8325 48.509 31.9898 48.4525 32.1637C48.396 32.3377 48.3833 32.5228 48.4155 32.7028L49.2728 37.7133C49.3073 37.9206 49.2833 38.1335 49.2035 38.328C49.1237 38.5224 48.9913 38.6908 48.8211 38.8142C48.6509 38.9375 48.4497 39.011 48.2401 39.0263C48.0304 39.0416 47.8207 38.9981 47.6344 38.9008L43.1383 36.5385C42.9755 36.4539 42.7947 36.4097 42.6112 36.4097C42.4277 36.4097 42.2469 36.4539 42.0841 36.5385L37.5881 38.9008C37.402 39.0008 37.1915 39.0462 36.9808 39.0321C36.7701 39.0179 36.5676 38.9446 36.3966 38.8207C36.2256 38.6967 36.0929 38.5271 36.0139 38.3312C35.9348 38.1354 35.9126 37.9212 35.9496 37.7133L36.807 32.7028C36.8392 32.5228 36.8265 32.3377 36.77 32.1637C36.7135 31.9898 36.6149 31.8325 36.4831 31.7058L32.8443 28.1559C32.6974 28.0083 32.5944 27.8228 32.5468 27.62C32.4992 27.4173 32.5089 27.2053 32.5748 27.0077C32.6406 26.8101 32.7601 26.6347 32.9198 26.5011C33.0795 26.3674 33.2732 26.2808 33.4793 26.2508L38.5025 25.5205C38.6853 25.4919 38.8584 25.4192 39.0067 25.3085C39.155 25.1978 39.274 25.0526 39.3535 24.8855L41.6015 20.3323C41.6963 20.1468 41.8404 19.9912 42.018 19.8825C42.1956 19.7738 42.3998 19.7163 42.608 19.7163C42.8163 19.7163 43.0205 19.7738 43.1981 19.8825C43.3757 19.9912 43.5198 20.1468 43.6146 20.3323V20.3323Z" stroke="#BA71AE" stroke-width="2.5" stroke-linecap="round" stroke-linejoin="round"/>
</svg>
