<svg width="24" height="24" viewBox="0 0 24 24" fill="none" xmlns="http://www.w3.org/2000/svg">
<path d="M12.4498 1.00257C12.8621 1.00258 13.274 1.02507 13.6836 1.06994C15.4549 1.17681 17.1358 1.84788 18.4526 2.97384C19.7693 4.09981 20.6443 5.61434 20.935 7.27077C21.2334 9.84906 20.4967 12.4393 18.8708 14.5277C18.2808 15.2461 17.5292 15.8313 16.6704 16.2408C15.8117 16.6502 14.8673 16.8736 13.9059 16.8948C13.3439 16.9123 12.7838 16.8237 12.2584 16.6343C11.733 16.4448 11.2527 16.1583 10.8456 15.7913C10.7124 15.6523 10.5874 15.5064 10.4712 15.3543L10.4163 15.5173C9.54347 18.6846 9.43664 19.3838 8.55222 20.8605C8.12754 21.5561 7.65092 22.2221 7.12599 22.8534C7.07306 22.9172 7.02013 23 6.92581 23C6.7651 22.9645 6.75741 22.8616 6.74105 22.7578C6.59867 21.7978 6.54458 20.8279 6.57937 19.8591C6.63134 18.5972 6.80264 18.1602 8.57821 11.3085C8.59993 11.2117 8.58602 11.1108 8.53877 11.0226C8.1214 9.99505 8.08744 8.86349 8.44253 7.8152C8.5742 7.29757 8.87686 6.83312 9.30657 6.48932C9.73628 6.14551 10.2707 5.94025 10.8321 5.90333C11.2332 5.89807 11.6232 6.02812 11.9322 6.27019C12.2412 6.51227 12.4489 6.85052 12.5182 7.22434C12.8069 8.41516 12.0004 9.98017 11.3691 12.2899C11.2851 12.5878 11.2773 12.9004 11.3464 13.2017C11.4155 13.503 11.5594 13.7844 11.7664 14.0226C11.9733 14.2608 12.2372 14.449 12.5363 14.5715C12.8354 14.694 13.1611 14.7473 13.4863 14.7271C14.1195 14.7167 14.733 14.5169 15.2388 14.1562C17.1202 12.8817 17.867 9.79718 17.7496 7.6222C17.5754 4.50038 14.9289 3.1384 12.2641 3.1384C11.2357 3.13502 10.2185 3.3399 9.28075 3.73928C5.60835 5.34252 4.73451 9.63057 6.37247 11.5998C6.58034 11.8456 6.74681 11.9967 6.66886 12.2507C6.56493 12.6477 6.46099 13.0446 6.34935 13.4343C6.32957 13.5262 6.27679 13.6087 6.19995 13.668C6.12312 13.7272 6.02697 13.7595 5.92785 13.7593C5.84675 13.7582 5.76666 13.7421 5.69207 13.712C5.09477 13.4803 4.57143 13.1057 4.17345 12.6249C2.77705 10.9807 2.40846 7.72598 4.28508 4.97107C5.18751 3.71725 6.40748 2.6972 7.83367 2.00399C9.25987 1.31079 10.8469 0.96651 12.4498 1.00257Z" fill="#99BCDF"/>
</svg>
