<svg width="24" height="24" viewBox="0 0 24 24" fill="none" xmlns="http://www.w3.org/2000/svg">
<path d="M13.1997 3.67999C13.2797 4.35999 13.3297 5.03998 13.3597 5.72998C13.3897 6.41998 13.4097 7.08998 13.3597 7.72998C13.3097 8.36998 13.3597 9.08998 13.2997 9.72998C13.2397 10.37 13.1997 11.09 13.1397 11.73C13.0797 12.37 13.0097 13.09 12.9797 13.73L12.9197 14.73V15.73V16.73V17.73C12.9197 18.41 12.9197 19.09 12.9197 19.73C12.9197 20.11 12.3397 20.42 11.5897 20.42C10.8397 20.42 10.1997 20.1 10.1797 19.71C10.1797 19.71 10.1797 19.65 10.1797 19.63C10.3097 18.95 10.4197 18.27 10.4997 17.63C10.5497 17.29 10.5997 16.96 10.6297 16.63L10.7297 15.63L10.8097 14.63L10.8697 13.63C10.9197 12.95 10.9297 12.27 10.9597 11.63V9.63C10.9597 8.95001 10.9597 8.27 10.9597 7.63C10.9597 6.99001 10.9597 6.27 10.8897 5.63C10.8197 4.99 10.8097 4.26 10.7497 3.63C10.7497 3.29 11.2197 3.01001 11.8897 3.01001C12.5597 3.01001 13.1197 3.26998 13.1597 3.59998L13.1997 3.67999Z" fill="#173962"/>
<path d="M20.0488 13.2C19.3686 13.2876 18.6844 13.341 17.9988 13.3599C17.3188 13.3599 16.6388 13.3599 15.9988 13.3599C15.3588 13.3599 14.6388 13.3599 13.9988 13.2999C13.3588 13.2399 12.6388 13.2 11.9988 13.14C11.3588 13.08 10.6388 13.0099 9.99883 12.9799L8.99883 12.9199H7.99883H6.99883H5.99883C5.31883 12.9199 4.63883 12.9199 3.99883 12.9199C3.60883 12.9199 3.29883 12.35 3.30883 11.59C3.31883 10.83 3.62881 10.1999 4.00881 10.1899H4.09881C4.77881 10.3299 5.44881 10.44 6.09881 10.52L7.09881 10.64L8.09881 10.7399L9.09881 10.8199L10.0988 10.8799C10.7788 10.9299 11.4588 10.94 12.0988 10.97H14.0988C14.7788 10.97 15.4588 10.97 16.0988 10.97C16.7388 10.97 17.4588 10.97 18.0988 10.9C18.7388 10.83 19.4588 10.8299 20.0988 10.7599C20.4388 10.7599 20.7188 11.24 20.7188 11.9C20.7188 12.56 20.4588 13.1299 20.1188 13.1699L20.0488 13.2Z" fill="#173962"/>
</svg>
