<svg xmlns="http://www.w3.org/2000/svg" width="80" height="80" viewBox="0 0 80 80">
    <g fill="none" fill-rule="evenodd">
        <g>
            <g transform="translate(-680 -250) translate(680 250)">
                <circle cx="40" cy="40" r="40" fill="#FAEFF0"/>
                <path fill="#C85B68" d="M42.524 26.925l12.505 19.453c.895 1.393.492 3.25-.902 4.146-.484.31-1.047.476-1.622.476h-25.01c-1.657 0-3-1.343-3-3 0-.575.165-1.138.476-1.622l12.505-19.453c.896-1.393 2.753-1.797 4.146-.9.362.232.67.539.902.9z"/>
                <path fill="#FFF" fill-rule="nonzero" d="M40.819 42.328l.324-8.334h-2.304l.342 8.334h1.638zm-.828 3.852c.684 0 1.26-.576 1.26-1.242 0-.684-.576-1.26-1.26-1.26s-1.242.576-1.242 1.26c0 .666.558 1.242 1.242 1.242z"/>
            </g>
        </g>
    </g>
</svg>
